<svg width="90" height="25" viewBox="0 0 90 25" fill="none" xmlns="http://www.w3.org/2000/svg">
<g id="clutch" clip-path="url(#clip0_245_3212)">
<path id="Vector" d="M23.418 0H27.5154V25H23.418V0ZM41.8562 17.025C41.8562 20.851 38.5609 21.156 37.5806 21.156C35.1314 21.156 34.6858 18.918 34.6858 17.568V8H30.5884V17.548C30.5884 19.918 31.3505 21.874 32.6862 23.178C33.8663 24.331 35.6343 24.961 37.5498 24.961C38.9081 24.961 40.8318 24.548 41.8562 23.635V25H45.9536V8H41.8562V17.025ZM54.1483 2H50.0509V8H46.9779V12H50.0509V25H54.1483V12H57.2214V8H54.1483V2ZM70.125 19.917C69.2328 20.7 68.0549 21.134 66.7621 21.134C63.9124 21.134 61.8197 19.091 61.8197 16.286C61.8197 13.481 63.8458 11.524 66.7621 11.524C68.0323 11.524 69.2328 11.937 70.1476 12.72L70.7694 13.242L73.532 10.546L72.8406 9.937C71.215 8.504 69.0567 7.7 66.7611 7.7C61.6394 7.7 57.92 11.308 57.92 16.265C57.92 21.201 61.7285 24.938 66.7611 24.938C69.0997 24.938 71.2805 24.134 72.8857 22.678L73.5535 22.069L70.7478 19.375L70.125 19.917ZM88.1566 9.482C86.9766 8.33 85.5937 7.7 83.6782 7.7C82.3199 7.7 80.7813 8.113 79.757 9.025V0H75.6596V25H79.757V15.635C79.757 11.809 82.5411 11.505 83.5214 11.505C85.9706 11.505 85.903 13.744 85.903 15.092V25H90.0004V15.113C90.0004 12.743 89.4934 10.787 88.1566 9.482Z" fill="#707070"/>
<path id="Vector_2" d="M66.6265 13.438C67.4121 13.438 68.1656 13.7427 68.7212 14.285C69.2768 14.8274 69.5889 15.563 69.5889 16.33C69.5889 17.097 69.2768 17.8326 68.7212 18.3749C68.1656 18.9173 67.4121 19.222 66.6265 19.222C65.8408 19.222 65.0873 18.9173 64.5317 18.3749C63.9762 17.8326 63.6641 17.097 63.6641 16.33C63.6641 15.563 63.9762 14.8274 64.5317 14.285C65.0873 13.7427 65.8408 13.438 66.6265 13.438Z" fill="#FF3D2E"/>
<path id="Vector_3" d="M17.6812 18.721C16.1232 20.286 14.0069 21.134 11.78 21.134C7.21549 21.134 3.89661 17.634 3.89661 12.83C3.89661 8.00401 7.21549 4.50401 11.78 4.50401C13.9854 4.50401 16.0781 5.35101 17.6597 6.89501L18.2825 7.50401L21.0216 4.83001L20.4203 4.22101C18.1493 1.93801 15.0763 0.700012 11.78 0.700012C5.05514 0.700012 0 5.91701 0 12.851C0 19.764 5.07768 24.96 11.78 24.96C15.0988 24.96 18.1719 23.7 20.4429 21.417L21.0441 20.808L18.3276 18.091L17.6812 18.721Z" fill="#707070"/>
</g>
<defs>
<clipPath id="clip0_245_3212">
<rect width="90" height="25" fill="white"/>
</clipPath>
</defs>
</svg>
