<svg width="210" height="40" viewBox="0 0 210 40" fill="none" xmlns="http://www.w3.org/2000/svg">
<path d="M78.9964 32V19.7031C78.9964 14.0299 73.6515 11.8496 68.9616 12.008C64.2789 12.1665 61 15.1356 61 15.1356V32H66.6257V18.7489C66.8452 17.8981 68.1122 17.3298 69.0696 17.13C71.1248 16.7029 73.3743 17.8775 73.3743 19.9614V31.9966H79L78.9964 32Z" fill="#F1F1F1"/>
<path d="M81 7V29.6431C81 29.6431 84.4985 32.8215 89.4985 32.9911C89.9939 33.0096 90.4969 32.9985 91 32.9653V27.5709C90.0668 27.5341 87.7051 27.0879 87.0023 26.0481V17.3684H91V11.609H87.0023V11.5906V7H81.0038H81Z" fill="#F1F1F1"/>
<path d="M111.814 24.4688C111.939 23.8125 112 23.1527 112 22.5C112 16.7121 107.291 12 101.5 12C95.7085 12 91 16.7085 91 22.5C91 28.2915 95.7085 33 101.5 33C105.846 33 109.68 30.3858 111.272 26.3407L111.358 26.1219H105.305L105.258 26.1685C104.261 27.1906 102.927 27.7536 101.5 27.7536C99.4201 27.7536 97.5123 26.4949 96.6839 24.6014H111.788L111.814 24.4723V24.4688ZM96.7664 20.2228C97.6414 18.4047 99.4739 17.2464 101.504 17.2464C103.533 17.2464 105.369 18.4083 106.241 20.2228H96.77H96.7664Z" fill="#F1F1F1"/>
<path d="M130 12C126.98 12.8125 125 14.8541 125 14.8541V32H130V12Z" fill="#F1F1F1"/>
<path d="M123 17.0751V12.0324C122.547 12.0014 122.095 11.9911 121.646 12.0083C117.151 12.1667 114 15.1359 114 15.1359V32H119.4V18.4942C120.032 17.5263 122.157 17.1061 123 17.0751Z" fill="#F1F1F1"/>
<path d="M142.544 12C136.73 12 132 16.7127 132 22.5C132 28.2873 136.73 33 142.544 33C145.288 33 147.877 31.9396 149.874 30.0117L150.595 32.7429H156L153.034 21.4289C152.493 16.0522 147.984 12 142.544 12ZM142.544 27.5233C139.764 27.5233 137.509 25.2741 137.509 22.5107C137.509 19.7474 139.768 17.4981 142.544 17.4981C145.32 17.4981 147.579 19.7474 147.579 22.5107C147.579 25.2741 145.32 27.5233 142.544 27.5233Z" fill="#F1F1F1"/>
<path d="M54 12V32H60V14.8541C60 14.8541 57.6261 12.8125 54 12Z" fill="#F1F1F1"/>
</svg>
