<svg width="210" height="40" viewBox="0 0 210 40" fill="none" xmlns="http://www.w3.org/2000/svg">
<path fill-rule="evenodd" clip-rule="evenodd" d="M144.141 12.2955H142.224C142.105 12.2955 142.068 12.3317 142.068 12.4486V16.2241H144.141C144.141 17.7887 144.02 21.2709 144.404 22.5953C144.592 23.2415 144.952 24.0238 145.421 24.5021C145.926 25.0166 146.435 25.3929 147.174 25.6841C148.905 26.3665 151.202 26.2772 153 25.8648V21.9362C151.951 21.9362 150.286 22.2084 149.423 21.5812C149 21.273 148.907 20.6182 148.907 20.0995V16.222H152.585V12.2934H148.907V9.0791H144.141V12.2934V12.2955Z" fill="#F1F1F1"/>
<path fill-rule="evenodd" clip-rule="evenodd" d="M104.853 2.72109C104.247 1.42857 103.204 0.633503 101.749 0.318878C100.696 0.0914116 94.7528 0.0212585 89.626 0H81.8678C79.2169 0 76.728 0.0510204 74.0966 0.0510204C73.4037 0.0510204 72.8942 0.102041 72.2315 0.102041C71.5774 0.102041 70.9147 0.0914116 70.2607 0.102041C69.939 0.106293 69.7188 0.155187 69.3303 0.155187C67.7221 0.150935 66.0383 0.265731 64.564 0.257228L60.8381 0.465561C60.3265 0.503827 59.7825 0.780187 59.4134 1.00128C57.4123 2.1875 57 3.95833 57 6.37755V35.2041C57.0065 35.7908 57.013 36.1458 57.0216 36.2032C57.1166 36.8176 56.9266 40 57.8289 40C58.2563 40 58.9989 39.2283 59.4479 38.8393C59.5278 38.7691 59.5774 38.7117 59.6552 38.6352C59.9358 38.3588 60.1776 38.1208 60.4582 37.8444C60.6158 37.6892 60.7215 37.6403 60.8748 37.4894C63.1457 35.2636 66.5262 33.4843 69.6109 32.7253C72.6222 31.9834 75.2536 32.0918 78.3448 32.0918C79.0248 32.0918 80.0869 32.0302 80.7194 32.0982C82.1462 32.2555 83.9552 32.0238 85.4382 32.145L95.9077 32.2959L98.7572 32.1939C99.014 32.1875 99.0464 32.1471 99.3249 32.1407C99.9833 32.1237 100.819 31.9834 101.427 31.8644C103.508 31.4541 104.67 30.642 105.261 28.5991C105.572 27.5213 105.645 25.6548 105.645 24.2836V7.34694C105.645 5.64626 105.402 3.89243 104.851 2.72109H104.853ZM75.6724 19.1603C74.3492 19.4473 72.8251 19.3622 71.422 19.3622C71.3421 19.6896 71.394 24.1645 71.394 24.9086H66.6686L66.6838 7.05145C68.5424 7.05145 74.0621 6.93452 75.5278 7.21088C82.537 8.53529 82.537 17.6701 75.6746 19.1603H75.6724ZM87.7955 24.9086L83.0702 24.8958V11.3797H87.7955V24.9086ZM85.7706 9.30485C84.0783 9.49405 82.7183 8.38435 82.5434 6.93878C82.3405 5.25085 83.5753 4.02423 85.0756 3.85204C86.7334 3.66071 88.115 4.81718 88.2963 6.22662C88.5078 7.88265 87.2407 9.13903 85.7728 9.30272L85.7706 9.30485ZM100.516 24.9086C97.6757 25.591 94.3772 25.2423 92.9201 23.5055C92.143 22.5787 91.7372 21.5179 91.7005 19.9511C91.6789 19.0115 91.7545 15.8333 91.6832 15.2785H89.6087L89.6131 11.3818L91.6962 11.3648L91.7242 8.1335H96.4215V11.3797H100.102V15.2764H96.4431C96.3459 15.8057 96.3869 19.6896 96.5402 20.0914C97.0475 21.4222 99.1565 21.0055 100.514 21.0162V24.9086H100.516Z" fill="#F1F1F1"/>
<path fill-rule="evenodd" clip-rule="evenodd" d="M123.729 16.0717C123.271 14.9323 122.695 14.1989 121.799 13.4314C119.934 11.8285 116.596 11.4034 114.535 12.9382C114.384 13.0509 114.328 13.1274 114.196 13.2167V5.56152H109.43V25.8676H113.782V24.5411C113.952 24.6538 113.948 24.7091 114.079 24.86C114.742 25.6083 116.13 26.1738 117.201 26.1738C119.154 26.1738 120.165 26.0037 121.693 24.8834C122.181 24.5262 122.535 24.1308 122.891 23.6653C123.236 23.2146 123.569 22.6087 123.772 22.0836C124.497 20.2108 124.478 17.934 123.726 16.0696L123.729 16.0717ZM117.097 21.9433C113.35 22.3472 113.054 16.6308 116.454 16.2439C120.102 15.8273 120.566 21.5692 117.097 21.9433Z" fill="#F1F1F1"/>
<path fill-rule="evenodd" clip-rule="evenodd" d="M140.272 16.0545C139.836 15.1957 139.733 15.134 139.21 14.4984C139.059 14.3156 138.947 14.1774 138.763 14.0201C138.66 13.9308 138.634 13.9308 138.532 13.8394C135.951 11.5732 131.959 11.3713 129.125 13.276C128.488 13.7055 127.739 14.3964 127.292 15.0426C127.035 15.4147 126.796 15.742 126.614 16.1608C126.42 16.6073 126.276 16.975 126.152 17.4916C126.055 17.8934 125.956 18.58 125.956 19.0839C125.956 19.5579 126.038 20.2255 126.133 20.6442C126.23 21.0694 126.409 21.6094 126.578 21.941L127.221 23.0422C128.372 24.7471 130.77 26.1736 132.9 26.1736C134.431 26.1736 135.383 26.1821 136.769 25.4933L137.855 24.8789C138.226 24.6366 138.515 24.3985 138.82 24.0945C140.065 22.8658 140.982 21.2459 140.982 19.3879C140.982 17.9444 140.885 17.2578 140.274 16.0545H140.272ZM133.926 21.873C130.232 22.4342 129.691 16.856 133.077 16.316C136.65 15.7463 137.276 21.3649 133.926 21.873Z" fill="#F1F1F1"/>
<path fill-rule="evenodd" clip-rule="evenodd" d="M71.3938 15.1025L71.3981 15.3024C73.261 15.3024 75.0656 15.6489 75.7823 14.1608C76.1083 13.4848 76.0176 12.5175 75.6334 11.9584C75.2686 11.4291 74.6015 11.1123 73.6841 11.1123H71.3916L71.3959 15.1047L71.3938 15.1025Z" fill="#F1F1F1"/>
</svg>
