<svg width="210" height="40" viewBox="0 0 210 40" fill="none" xmlns="http://www.w3.org/2000/svg">
<path d="M130.799 14.1676C130.009 8.91862 123.426 5.55401 117.437 6.93119C115.112 7.4466 113.055 8.60937 111.591 10.2339C110.127 11.8585 109.342 13.8542 109.357 15.9035C109.357 17.3219 109.4 18.7444 109.328 20.1628C109.271 20.8019 109.065 21.4204 108.725 21.9936C108.386 22.5626 107.912 23.0697 107.343 23.4821C106.769 23.8944 106.108 24.2078 105.396 24.4016C104.683 24.5953 103.927 24.6654 103.181 24.6118C102.071 24.5088 101.018 24.1459 100.133 23.5686C99.6212 24.8386 98.851 26.022 97.8559 27.0652C97.6119 27.3167 97.6359 27.428 97.9564 27.6012C99.516 28.4506 101.305 28.9372 103.157 29.0114C104.625 29.0732 106.094 28.8794 107.472 28.4424C108.85 28.0053 110.108 27.3291 111.17 26.4632C112.232 25.5973 113.079 24.5541 113.653 23.3996C114.227 22.2451 114.519 21.004 114.514 19.7464C114.514 18.431 114.495 17.1157 114.519 15.8004C114.543 14.5263 115.15 13.314 116.217 12.4193C117.284 11.5287 118.719 11.0339 120.212 11.038C121.704 11.0462 123.135 11.5534 124.187 12.4564C125.244 13.3594 125.838 14.5758 125.842 15.8499C125.857 17.1652 125.857 18.4805 125.842 19.7958C125.842 20.4803 125.665 21.1565 125.335 21.7833C125.005 22.4059 124.517 22.9625 123.914 23.4161C123.312 23.8696 122.604 24.2078 121.833 24.4098C121.063 24.6118 120.255 24.6737 119.461 24.5871C118.116 24.4098 116.877 23.8779 115.911 23.0615C115.676 22.8223 115.394 22.6244 115.078 22.4677C114.662 23.7954 113.916 25.0283 112.887 26.0797C112.643 26.3313 112.696 26.4673 112.964 26.6611C116.136 28.9413 119.728 29.6587 123.651 28.5083C127.589 27.3538 129.957 24.9211 130.808 21.4328C131.229 19.0207 131.224 16.5714 130.794 14.1634L130.799 14.1676Z" fill="#F1F1F1"/>
<path d="M81.4805 0.0371482C82.045 0.0618879 82.5808 0.255682 83.0018 0.577299C83.2984 0.820572 83.5281 1.11745 83.6716 1.44319C84.1117 2.40391 83.9825 4.14806 82.7148 4.80367C82.4756 4.92737 82.5186 5.03457 82.6956 5.17889C83.0305 5.45927 83.3463 5.75615 83.772 6.13961C82.9827 6.11075 82.2842 6.33341 81.7819 5.71491C81.6479 5.56235 81.4757 5.43865 81.2748 5.35206C81.0739 5.2696 80.8538 5.22836 80.6289 5.23249C78.4139 5.0923 77.7729 3.49658 78.0695 1.94623C78.1126 1.56276 78.2752 1.19991 78.5431 0.890668C78.8158 0.581422 79.1746 0.342271 79.5956 0.197956C80.0453 0.0412714 80.5285 -0.0247011 81.0117 0.00828515L81.4757 0.0371482H81.4805ZM80.9543 4.43669C81.2509 4.44906 81.5475 4.38309 81.7962 4.24702C82.0498 4.11095 82.2459 3.91304 82.3608 3.67801C82.5426 3.34815 82.6382 2.9853 82.6382 2.61832C82.6382 2.25135 82.5426 1.89263 82.356 1.55864C82.2412 1.33186 82.0498 1.13394 81.801 1.002C81.557 0.865929 81.27 0.795833 80.9782 0.799956C80.7055 0.787586 80.4328 0.845312 80.1984 0.964887C79.964 1.08446 79.7726 1.25764 79.653 1.46793C79.4234 1.81428 79.299 2.206 79.2942 2.60183C79.2894 2.99767 79.3995 3.3935 79.6195 3.74398C79.7439 3.95427 79.9353 4.13157 80.1697 4.25527C80.4089 4.37897 80.6816 4.44082 80.9543 4.43257V4.43669Z" fill="#F1F1F1"/>
<path d="M78.0453 18.328C77.9114 16.6581 78.074 14.9758 78.5381 13.3471C79.1265 11.57 80.2938 9.966 81.8964 8.72489C82.5471 8.22185 83.3125 7.859 84.1928 8.20948C84.7238 8.4074 85.1974 8.70015 85.5849 9.07125C85.9724 9.43822 86.2595 9.87529 86.4269 10.3495C86.5943 10.8113 86.2355 11.1081 85.848 11.3638C84.652 12.1431 83.8005 13.2399 83.4225 14.481C83.236 15.1366 83.1451 15.8046 83.1594 16.4808C83.1451 17.7508 83.1499 19.0207 83.1594 20.2907C83.1403 21.4906 83.6522 22.6575 84.5851 23.5563C85.5179 24.4552 86.8144 25.0242 88.2161 25.1521C89.6178 25.2799 91.0243 24.9583 92.1582 24.2491C93.2968 23.5399 94.0813 22.4967 94.3636 21.3174C94.4545 20.9216 94.5023 20.5175 94.4975 20.1175C94.5215 18.6249 94.4497 17.1281 94.5358 15.6355C94.6841 14.0604 95.306 12.5431 96.3394 11.236C97.3727 9.92477 98.7888 8.86508 100.444 8.15588C102.099 7.44667 103.941 7.11268 105.793 7.1869C107.644 7.26112 109.438 7.73942 111.007 8.58057C111.318 8.74138 111.433 8.83622 111.146 9.12897C110.227 10.0732 109.5 11.1453 109.007 12.2957C108.888 12.5678 108.807 12.5967 108.515 12.4317C107.754 11.9782 106.874 11.6937 105.95 11.6029C105.027 11.5081 104.094 11.6112 103.228 11.8998C102.362 12.1884 101.597 12.6544 100.994 13.2564C100.391 13.8584 99.9705 14.58 99.7743 15.351C99.6643 15.7592 99.6069 16.1757 99.6164 16.5962C99.6164 18.0311 99.6595 19.466 99.6069 20.901C99.4586 23.1688 98.3295 25.3129 96.4398 26.9127C94.5502 28.5167 92.0338 29.465 89.3739 29.5805C86.714 29.6959 84.0971 28.9661 82.0304 27.5312C79.9637 26.1004 78.5859 24.0635 78.1745 21.8204C78.1123 21.5401 78.074 21.2597 78.0597 20.9752C78.0357 20.0969 78.0453 19.2145 78.0501 18.3321L78.0453 18.328Z" fill="#F1F1F1"/>
<path d="M114.48 30.7928C114.567 31.902 114.433 33.0153 114.088 34.0873C113.624 35.4356 112.749 36.6561 111.548 37.621C110.347 38.5858 108.869 39.2579 107.261 39.5713C104.802 40.1857 102.186 40.1403 99.7601 39.4311C98.6932 39.1218 97.7221 38.6188 96.904 37.9591C96.6983 37.823 96.5261 37.654 96.3969 37.4643C96.2677 37.2705 96.1864 37.0602 96.1529 36.8417C96.1242 36.6231 96.1434 36.4005 96.2151 36.1861C96.2869 35.9717 96.4065 35.7737 96.5691 35.6006C97.0045 35.0563 97.5212 34.5656 98.1048 34.1368C98.7698 33.6874 99.0712 33.6832 99.7074 34.178C100.53 34.8336 101.545 35.2872 102.65 35.4851C103.386 35.6047 104.142 35.5964 104.874 35.4645C105.606 35.3284 106.3 35.0687 106.912 34.7017C107.525 34.3347 108.046 33.8605 108.438 33.3204C108.831 32.7761 109.094 32.17 109.208 31.5391C109.342 30.6938 109.39 29.8403 109.357 28.9909C109.333 28.8672 109.357 28.7394 109.433 28.6322C109.505 28.525 109.62 28.4384 109.754 28.3931C110.476 28.0838 111.127 27.6632 111.667 27.1519C111.878 26.9623 112.017 26.9128 112.232 27.1561C112.749 27.7457 113.423 28.2199 114.198 28.5456C114.294 28.5786 114.37 28.6405 114.423 28.7188C114.476 28.7971 114.49 28.8837 114.476 28.9744C114.476 29.5022 114.476 30.0259 114.476 30.8052L114.48 30.7928Z" fill="#F1F1F1"/>
<path d="M114.509 3.16658C114.509 2.65942 114.495 2.15225 114.514 1.64509C114.495 1.43892 114.533 1.22864 114.614 1.03484C114.696 0.841047 114.83 0.663746 114.997 0.511185C115.165 0.362746 115.37 0.243171 115.595 0.168952C115.82 0.0906095 116.064 0.0576232 116.308 0.0658698C117.585 0.0287602 118.863 0.0576232 120.14 0.0493766C120.427 0.0493766 120.494 0.156582 120.489 0.375116C120.48 1.4348 120.504 2.49449 120.48 3.55417C120.499 3.74384 120.47 3.93764 120.403 4.12318C120.331 4.30461 120.221 4.47366 120.073 4.6221C119.925 4.76642 119.748 4.88599 119.547 4.97258C119.346 5.05917 119.126 5.11277 118.901 5.12514C117.528 5.26121 116.136 5.154 114.753 5.17874C114.481 5.18287 114.504 5.02206 114.504 4.87362C114.504 4.30461 114.504 3.73972 114.504 3.1707L114.509 3.16658Z" fill="#F1F1F1"/>
<path d="M127.464 2.0533C127.464 2.54397 127.469 3.03876 127.464 3.52943C127.488 3.73148 127.464 3.93764 127.393 4.13143C127.321 4.32523 127.196 4.50253 127.039 4.65509C126.881 4.80765 126.685 4.92723 126.464 5.01382C126.244 5.10041 126.01 5.14164 125.771 5.14164C124.446 5.20761 123.111 5.1705 121.781 5.18287C121.551 5.18287 121.475 5.09628 121.48 4.91074C121.518 3.73148 121.393 2.55222 121.551 1.37708C121.575 1.05959 121.723 0.758586 121.982 0.527682C122.235 0.296778 122.575 0.144216 122.948 0.107107C124.359 -0.0248385 125.78 0.0782437 127.196 0.053504C127.488 0.0493807 127.469 0.230805 127.469 0.395737C127.469 0.948257 127.469 1.50078 127.469 2.0533H127.464Z" fill="#F1F1F1"/>
<path d="M89.7996 3.8801C90.0771 2.77506 90.3737 1.67002 90.6225 0.560856C90.7038 0.185637 90.8617 0.045445 91.3305 0.0619381C92.4069 0.0949244 92.4165 0.0701846 92.6605 0.960814C92.914 1.90505 93.1485 2.8534 93.3924 3.80588C93.6029 3.78939 93.5742 3.6492 93.6029 3.55024C93.8995 2.49055 94.1914 1.43087 94.4928 0.375308C94.5693 0.0990477 95.0429 -0.0328975 95.5213 0.0866778C95.904 0.181513 95.6601 0.404171 95.617 0.556732C95.1864 1.98751 94.7367 3.41417 94.3158 4.84495C94.2344 5.12121 94.0861 5.19131 93.7752 5.19131C92.6461 5.19131 92.6414 5.20368 92.3878 4.25532C92.1438 3.34407 91.9046 2.43283 91.6415 1.43499C91.4406 1.67002 91.3257 1.9504 91.3066 2.23903C91.0626 3.10905 90.8426 3.98318 90.6368 4.86144C90.5842 5.09235 90.479 5.18306 90.1919 5.19131C88.9624 5.23254 88.9672 5.23666 88.6515 4.21409C88.264 2.94412 87.8813 1.67414 87.465 0.408294C87.3742 0.123787 87.4507 0.0825545 87.7569 0.074308C88.6515 0.0578148 88.6563 0.045445 88.8715 0.808253C89.1586 1.83495 89.4361 2.86165 89.7183 3.88835H89.8092L89.7996 3.8801Z" fill="#F1F1F1"/>
<path d="M101.138 5.17881C100.659 5.319 100.439 5.03037 100.353 4.64278C100.229 4.10676 99.8939 3.97481 99.2528 4.00367C99.1475 4.0078 99.0806 4.00367 98.9897 4.00367C98.0664 3.98718 97.4205 4.05728 97.2818 4.93966C97.2818 4.97677 97.2674 5.01388 97.2483 5.04687C97.2292 5.07985 97.2005 5.10872 97.1622 5.13345C97.1287 5.15407 97.0856 5.17056 97.0426 5.17881C96.9995 5.18706 96.9565 5.18706 96.9134 5.17881C96.6025 5.20767 96.2915 5.19118 95.9853 5.12521C95.9088 5.09635 95.9997 4.9644 96.0379 4.87781C96.7268 3.36044 97.4109 1.84307 98.0951 0.329827C98.119 0.251484 98.1764 0.185512 98.2529 0.136032C98.3295 0.090676 98.4252 0.0659363 98.5161 0.0700595C99.5925 0.0164568 99.5925 0.0123335 99.9847 0.865854C100.559 2.11521 101.133 3.36457 101.702 4.61804C101.961 5.18293 101.951 5.18293 101.142 5.18293L101.138 5.17881ZM98.8988 1.14624C98.7218 1.56269 98.5878 1.86369 98.4634 2.17294C98.1668 2.90138 98.4762 3.24087 99.3915 3.19139C99.3915 3.19139 99.425 3.19139 99.4442 3.19139C99.6594 3.20376 99.7264 3.13366 99.6547 2.95224C99.4107 2.38735 99.1762 1.81833 98.8988 1.14624Z" fill="#F1F1F1"/>
<path d="M85.1783 2.66366C85.1783 1.91734 85.1926 1.17103 85.1735 0.424713C85.1687 0.148453 85.2739 0.0618638 85.5897 0.0701103C86.6039 0.0866035 86.403 0.0288775 86.4078 0.754576C86.4173 2.09877 86.3838 3.44296 86.4221 4.78303C86.4365 5.30668 86.0537 5.15825 85.7332 5.18298C85.3744 5.20772 85.1448 5.17474 85.1687 4.76653C85.2118 4.06557 85.1831 3.36462 85.1831 2.66366H85.1783Z" fill="#F1F1F1"/>
</svg>
