<svg width="210" height="40" viewBox="0 0 210 40" fill="none" xmlns="http://www.w3.org/2000/svg">
<path fill-rule="evenodd" clip-rule="evenodd" d="M85.8165 15.9166C85.8165 17.3283 85.4023 18.7684 82.331 18.7684H79.3121V13.0151H82.2572C85.4118 13.0151 85.8165 14.5663 85.8165 15.9166ZM82.1596 10.5913H76.3813V26.4016H79.3121V21.1449H82.3548C88.8187 21.1449 88.8187 17.6144 88.8187 15.9189C88.8187 14.4623 88.8187 10.5937 82.1596 10.5937M99.0491 20.672V20.9321C99.0491 23.039 97.7278 24.297 95.516 24.297C93.7756 24.297 92.8161 23.6988 92.8161 22.6134C92.8161 21.8212 93.2756 21.3128 95.6279 21.0503L99.0515 20.6743L99.0491 20.672ZM95.8826 13.5377C92.0567 13.5377 90.2758 15.0298 90.2758 18.2292V18.3475L93.059 18.3215V18.2056C93.059 16.2405 94.197 15.8386 95.9064 15.8386C98.3754 15.8386 98.9539 16.8412 99.0444 18.4657L95.2112 18.8441C91.4781 19.1988 89.8854 20.3338 89.8854 22.6347C89.8854 25.101 91.7424 26.5719 94.8541 26.5719C97.273 26.5719 99.0015 25.6544 99.7348 24.6825L100.23 26.4016H101.856V19.2035C101.856 16.2169 101.399 13.5377 95.8826 13.5377ZM109.677 13.5377C104.456 13.5377 103.361 17.0824 103.361 20.0548C103.361 24.3798 105.504 26.5719 109.727 26.5719C113.405 26.5719 115.432 24.7321 115.432 21.3932V21.2773H112.536L112.527 21.3837C112.344 23.3133 111.51 24.1008 109.653 24.1008C107.342 24.1008 106.268 22.8073 106.268 20.0311C106.268 17.255 107.327 15.8882 109.606 15.8882C111.472 15.8882 112.346 16.7584 112.527 18.7991L112.536 18.9056H115.432V18.7897C115.432 15.4034 113.389 13.5377 109.677 13.5377Z" fill="#F1F1F1"/>
<path fill-rule="evenodd" clip-rule="evenodd" d="M128.671 13.7054H124.672L120.11 18.4253V8.95947H117.253V26.399H120.11V20.9792L125.233 26.399H129.155L122.148 19.7141L128.671 13.7054Z" fill="#F1F1F1"/>
<path fill-rule="evenodd" clip-rule="evenodd" d="M136.704 13.5351C134.842 13.5351 133.542 14.0199 132.828 14.98V8.95947H130.021V26.399H132.828L132.878 19.2979C132.878 17.0349 133.34 15.9589 135.971 15.9589C138.601 15.9589 138.916 16.9427 138.916 19.2979V26.399H141.747V19.5414C141.747 15.9353 140.889 13.5351 136.704 13.5351Z" fill="#F1F1F1"/>
<path fill-rule="evenodd" clip-rule="evenodd" d="M146.411 18.8911C146.587 16.7771 147.594 15.7886 149.568 15.7886C150.532 15.7886 151.284 16.0535 151.803 16.5784C152.468 17.2476 152.613 18.1935 152.613 18.8911H146.411ZM152.615 22.4357C152.413 23.2539 151.896 24.3441 149.739 24.3441C147.696 24.3441 146.57 23.2847 146.387 21.1943H155.532L155.541 21.0879C155.753 18.482 155.232 16.42 154.034 15.1312C153.053 14.0742 151.634 13.5398 149.813 13.5398C145.573 13.5398 143.423 15.7248 143.423 20.0332C143.423 24.3417 145.58 26.574 149.837 26.574C154.47 26.574 155.429 24.0083 155.589 22.4783L155.603 22.3506H152.637L152.615 22.4405V22.4357Z" fill="#F1F1F1"/>
<path fill-rule="evenodd" clip-rule="evenodd" d="M157.465 26.4014H160.322V8.95947H157.465V26.4014ZM172.143 20.0782C172.143 22.5351 171.566 24.1715 168.755 24.1715C165.943 24.1715 165.417 22.6061 165.417 20.0782C165.417 17.5504 165.998 15.9117 168.828 15.9117C171.659 15.9117 172.143 17.5788 172.143 20.0782ZM169.54 13.5375C166.495 13.5375 165.233 14.656 164.753 15.3252L164.262 13.7078H162.636V31.2679H165.443V25.1008C165.993 25.7488 167.169 26.5693 169.59 26.5693C173.181 26.5693 175 24.3843 175 20.0759C175 15.7674 173.112 13.5351 169.54 13.5351" fill="#F1F1F1"/>
<path fill-rule="evenodd" clip-rule="evenodd" d="M49.4663 2.26489L34.0029 11.1325L49.4663 20L64.9298 11.1325L49.4663 2.26489Z" fill="#B7B7B7"/>
<path fill-rule="evenodd" clip-rule="evenodd" d="M57.5752 17.2739C57.5752 21.7219 53.9444 25.3281 49.4685 25.3281C44.9926 25.3281 41.3618 21.7219 41.3618 17.2739C41.3618 12.826 44.9926 9.22217 49.4685 9.22217C53.9444 9.22217 57.5752 12.8283 57.5752 17.2739Z" fill="white"/>
<path fill-rule="evenodd" clip-rule="evenodd" d="M64.9297 28.8677V11.1326L49.4663 20.0001V37.7353L64.9297 28.8677Z" fill="#F1F1F1"/>
<path fill-rule="evenodd" clip-rule="evenodd" d="M49.4663 20.0001L34.0029 11.1326V28.8677L49.4663 37.7353V20.0001Z" fill="#E4E4E4"/>
</svg>
