<svg width="210" height="40" viewBox="0 0 210 40" fill="none" xmlns="http://www.w3.org/2000/svg">
<path d="M76.8506 29.6897C79.9984 29.6897 82.8826 28.4278 84.2832 25.8209C85.6144 28.2337 88.0688 29.6897 91.7573 29.6897C96.5552 29.6897 99.7722 27.3046 99.7722 23.63V23.3111H95.945V23.6023C95.945 25.2246 94.7941 26.2369 91.7989 26.2369C88.152 26.2369 86.8208 24.6422 86.7098 21.3281H99.7445C99.8554 20.7457 99.9248 19.8167 99.9248 18.8737C99.9248 13.9233 96.569 11.0391 91.7989 11.0391C89.0533 11.0391 86.8208 12.0097 85.2954 13.7153C84.0613 12.0513 81.9674 11.0391 79.0832 11.0391C74.313 11.0391 71.2069 13.9233 71.2069 17.9308V18.2913H74.9925V17.9724C74.9925 15.2268 76.3237 14.4641 78.9306 14.4641C81.5376 14.4641 83.0074 15.1159 83.0074 18.1527V19.054L76.6842 19.8444C72.9264 20.2743 70.6938 21.9383 70.6938 24.8641C70.6938 28.1089 73.2176 29.7036 76.8368 29.7036L76.8506 29.6897ZM91.6186 14.3116C94.6832 14.3116 96.3472 15.6428 96.2085 18.6796H86.7514C86.9733 15.934 88.2352 14.3116 91.6186 14.3116ZM74.5072 24.5313C74.5072 23.2278 75.2282 22.6871 77.2805 22.4375L83.0906 21.7164C83.0906 25.5436 80.345 26.6252 77.6688 26.6252C75.4362 26.6252 74.4933 26.015 74.4933 24.5313H74.5072Z" fill="#F1F1F1"/>
<path d="M110.366 29.3293C111.6 29.3293 112.82 29.1906 113.583 29.0103V25.8349H111.378C108.966 25.8349 108.161 25.5159 108.161 23.6301V14.6445H113.583V11.3997H108.161V6.94849H105.166L104.334 11.3858H101.27V14.6306H104.265V23.7965C104.265 27.8455 106.359 29.3154 110.366 29.3154V29.3293Z" fill="#F1F1F1"/>
<path d="M123.567 29.6897C128.407 29.6897 131.624 27.3046 131.624 23.63V23.3111H127.755V23.6023C127.755 25.2246 126.604 26.2369 123.609 26.2369C119.851 26.2369 118.659 24.5729 118.52 21.2865H131.555C131.666 20.7457 131.776 19.7751 131.776 18.8321C131.776 13.9233 128.379 11.0391 123.54 11.0391C118.201 11.0391 114.873 14.7969 114.873 20.3575C114.873 25.918 117.646 29.7036 123.567 29.7036V29.6897ZM123.456 14.3116C126.521 14.3116 128.185 15.6151 128.046 18.6796H118.548C118.77 15.9063 120.059 14.3116 123.456 14.3116Z" fill="#F1F1F1"/>
<path d="M138.765 29.3291V17.6395C138.765 15.2545 139.625 14.3531 141.982 14.3531C144.34 14.3531 144.95 15.2129 144.95 17.5979V18.319H148.846V17.1265C148.846 13.7707 147.404 11.0251 143.646 11.0251C141.012 11.0251 139.348 12.4673 138.627 14.1313H138.446V11.2747H134.869V29.3291H138.765Z" fill="#F1F1F1"/>
<path d="M155.17 29.3291V18.9707C155.17 15.615 156.612 14.3809 159.787 14.3809C162.963 14.3809 164.086 15.7121 164.086 18.9291V29.3291H167.982V18.0694C167.982 13.9926 165.889 11.0251 161.229 11.0251C157.721 11.0251 155.808 12.8278 154.976 14.7414H154.837V11.3857H151.259V29.3291H155.156H155.17Z" fill="#F1F1F1"/>
<path d="M175.359 9.11161V5.14575H171.463L171.504 9.11161H175.373H175.359ZM175.401 29.3292V11.2887H171.504V29.3431H175.401V29.3292Z" fill="#F1F1F1"/>
<path d="M186.342 29.3293C187.576 29.3293 188.796 29.1906 189.559 29.0103V25.8349H187.354C184.941 25.8349 184.137 25.5159 184.137 23.6301V14.6445H189.545V11.3997H184.137V6.94849H181.142L180.31 11.3858H177.245V14.6306H180.24V23.7965C180.24 27.8455 182.334 29.3154 186.342 29.3154V29.3293Z" fill="#F1F1F1"/>
<path d="M194.634 35.4721C197.449 35.4721 199.183 34.6401 200.514 31.4647L209 11.3857H204.701L201.415 20.0801L199.931 23.9767H199.64L198.018 20.0801L194.412 11.3857H190.114L197.727 28.8577L197.047 30.3692C196.465 31.7004 195.924 31.9639 194.371 31.9639H191.916V35.1393C192.527 35.3196 193.65 35.4583 194.62 35.4583L194.634 35.4721Z" fill="#F1F1F1"/>
<path fill-rule="evenodd" clip-rule="evenodd" d="M35.1813 18.028L33.1845 15.1992C36.5541 10.9144 40.4645 7.46156 46.1498 7.46156C50.1434 7.43383 53.9429 9.07009 56.6053 11.9405C59.2677 14.8248 60.5018 18.6658 60.0303 22.493H43.529V19.2621H56.633C55.7733 14.3117 51.3359 10.6925 46.1498 10.6925C41.56 10.6925 38.2736 13.9234 35.1813 18.028ZM15.2965 7.46156C22.3408 7.46156 26.889 12.509 31.7008 19.4285C36.5125 26.3479 40.312 31.0626 46.0528 31.0626C50.0186 31.0626 53.6655 29.0242 55.593 25.7378H59.3786C57.2015 30.9239 51.9184 34.3213 46.0528 34.3074C39.0085 34.3074 34.6405 29.4679 29.6346 22.3266C24.6288 15.1714 21.0373 10.7064 15.2965 10.7064C9.34772 10.6648 4.4944 15.2269 4.43893 20.8845C4.4944 26.5559 9.34772 31.1042 15.2965 31.0765C19.9973 31.0765 23.353 27.8455 26.5146 23.741L28.5392 26.5975C25.1002 30.8685 21.1066 34.3074 15.2965 34.3074C7.46186 34.349 1.06933 28.3447 1 20.8845C1.06933 13.4104 7.46186 7.4061 15.2965 7.46156Z" fill="#F1F1F1"/>
</svg>
