<svg width="210" height="40" viewBox="0 0 210 40" fill="none" xmlns="http://www.w3.org/2000/svg">
<path d="M1.49793 26.7948C-1.95825 18.9579 0.731525 10.5503 7.86495 6.24769C14.6225 2.16462 23.4951 3.8037 28.7052 9.87709C30.0243 11.4137 29.3684 12.204 28.3441 13.2431C27.5703 14.026 27.025 15.4529 25.7206 13.6821C25.0869 12.8187 24.7184 13.8724 24.4089 14.2163C21.8149 17.0993 19.1988 19.9677 16.7301 22.9458C15.75 24.1386 15.1826 24.0215 14.3425 22.9093C13.554 21.8702 12.6476 20.9116 11.7559 19.9457C9.61883 17.6261 10.2452 17.8091 8.10814 19.9457C5.91947 22.1336 3.8045 24.3947 1.49793 26.7874V26.7948Z" fill="#F1F1F1"/>
<path d="M30.6798 12.5481C33.2532 18.9794 32.8438 24.8172 28.7498 30.0389C24.473 35.4935 18.7999 37.3568 12.1471 35.7189C8.55017 34.8323 5.67705 32.7436 3.4034 29.7383C2.69426 28.7992 2.60653 28.123 3.49113 27.2364C5.45041 25.2755 7.35852 23.2619 9.21545 21.1958C10.0196 20.3017 10.5168 20.4821 11.1747 21.316C12.3371 22.7811 13.6238 24.1485 14.7716 25.6286C15.4442 26.4926 15.8536 26.41 16.5189 25.6061C19.1069 22.4956 21.7753 19.4603 24.378 16.3648C25.0359 15.5834 25.5404 15.1702 26.2641 16.2446C26.7686 16.9884 27.2072 16.6428 27.6605 16.0943C28.5743 14.9749 29.5247 13.893 30.6725 12.5481H30.6798Z" fill="#F1F1F1"/>
<path d="M90.8045 27.6178C90.8045 29.8354 90.7314 31.7563 90.8265 33.6698C90.907 35.3534 89.9193 35.3608 88.7268 35.3385C87.505 35.3163 86.4076 35.4869 86.4295 33.5882C86.51 26.9651 86.4295 20.342 86.4734 13.7189C86.4807 11.8944 88.7926 10.9154 90.3729 12.2652C91.1557 12.9327 91.3459 13.044 92.2385 12.5619C96.5477 10.2331 101.091 12.2801 102.203 17.0416C102.708 19.1998 102.7 21.4545 102.174 23.6128C100.915 28.7525 96.3209 30.4954 90.8119 27.6104L90.8045 27.6178ZM90.7387 20.3643C90.6875 23.6498 91.7849 25.3038 94.0895 25.4076C96.4452 25.5114 97.9523 23.5757 97.9597 20.4236C97.9597 17.4198 96.5403 15.4767 94.3309 15.4841C91.9824 15.4841 90.7899 17.1083 90.7387 20.3643Z" fill="#F1F1F1"/>
<path d="M77.7862 22.9713C78.705 19.7467 79.4708 16.9922 80.2729 14.2451C80.9147 12.0342 82.6795 11.1601 84.8016 11.8506C85.8226 12.1811 85.4434 12.7246 85.2319 13.3196C82.9639 19.6732 80.6813 26.0195 78.4425 32.3805C77.5309 34.966 75.438 35.2819 73.17 35.3407C72.2876 35.3627 71.4635 35.2231 71.551 34.0479C71.6167 33.1371 71.0697 31.8296 72.572 31.624C75.5109 31.2273 75.2192 29.4057 74.5264 27.4004C73.0314 23.0888 71.4489 18.8139 70.0123 14.4875C69.7571 13.7089 68.6121 12.306 70.0269 12.0195C71.4416 11.7404 73.6148 10.7708 74.4243 13.2535C75.3286 16.03 76.1162 18.8359 76.984 21.6271C77.0788 21.9429 77.3194 22.2074 77.7862 22.9786V22.9713Z" fill="#F1F1F1"/>
<path d="M131.068 19.9174C131.009 25.4428 127.739 28.7386 122.355 28.6939C117.185 28.6492 113.893 25.0476 113.974 19.5222C114.048 14.2653 117.502 10.6637 122.488 10.6488C127.835 10.6264 131.127 14.1832 131.068 19.9249V19.9174ZM126.487 19.813C126.524 16.465 125.102 14.6456 122.466 14.6679C119.925 14.6903 118.54 16.5694 118.562 19.9622C118.584 23.0268 120.131 24.9059 122.598 24.8686C125.043 24.8313 126.443 23.0045 126.48 19.813H126.487Z" fill="#F1F1F1"/>
<path d="M47.6238 11.6143C51.2263 11.6785 53.8804 12.2488 55.2343 14.9579C55.6549 15.7991 56.7334 17.175 55.3643 17.7097C54.1481 18.1802 52.1518 18.6365 51.1957 17.1822C50.1861 15.6494 49.0235 14.9222 47.2414 15.4997C45.4516 16.0771 45.0538 17.6028 44.9773 19.1641C44.9314 20.1336 44.9467 21.1103 45.0538 22.0799C45.2068 23.5199 45.9717 24.625 47.5779 24.9315C49.1459 25.2309 50.2779 24.739 50.9969 23.2562C51.9224 21.3598 54.064 21.9943 55.2266 22.4435C56.917 23.1065 55.3719 24.4253 54.8748 25.2737C53.1538 28.2537 50.1785 28.9096 46.8283 28.6387C43.6388 28.3749 41.4742 26.7922 40.587 23.962C39.3861 20.1122 39.5085 16.3837 42.7898 13.3396C44.2737 11.9636 46.2394 11.5288 47.6314 11.6072L47.6238 11.6143Z" fill="#F1F1F1"/>
<path d="M110.462 28.6944C106.812 28.5231 105.955 27.5701 105.927 23.7507C105.913 21.8074 105.955 19.8642 105.913 17.921C105.885 16.633 106.32 15.3003 104.334 14.7567C103.288 14.4738 103.203 12.2998 104.397 11.9573C106.053 11.4883 105.99 10.5055 105.899 9.32167C105.773 7.57947 106.32 6.83494 108.103 6.84983C109.781 6.85727 110.532 7.32633 110.357 9.20255C110.237 10.4459 110.013 11.8977 112.013 11.801C113.017 11.7563 112.905 12.7167 112.926 13.4464C112.947 14.243 112.835 15.0248 111.866 14.9801C110.265 14.9056 110.3 16.0001 110.322 17.169C110.35 18.8368 110.307 20.4971 110.336 22.1648C110.357 23.5645 109.879 25.1653 112.168 25.2919C113.382 25.3589 112.982 26.7809 112.87 27.585C112.638 29.2974 111.241 28.4412 110.448 28.6944H110.462Z" fill="#F1F1F1"/>
<path d="M149.182 26.3467C149.182 28.8643 149.189 30.8449 149.182 32.8256C149.182 33.5366 149.267 34.3782 148.213 34.3927C147.144 34.4072 147.222 33.5584 147.222 32.8474C147.215 26.5354 147.215 20.2234 147.222 13.9114C147.222 13.2149 147.08 12.366 148.006 12.1193C149.431 11.7348 148.911 13.3019 149.488 13.7735C150.429 13.2004 151.269 12.5039 152.238 12.1193C156.001 10.6175 159.627 12.4603 160.903 16.3926C161.587 18.5111 161.623 20.6732 161.117 22.7917C159.827 28.146 155.359 30.0324 150.657 27.2972C150.3 27.0868 149.958 26.8401 149.189 26.3395L149.182 26.3467ZM159.357 20.1291C159.328 19.5051 159.342 18.8739 159.271 18.25C158.929 15.4495 157.262 13.7155 154.718 13.4688C152.36 13.2439 150.471 14.6151 149.609 17.2415C148.818 19.6575 148.996 22.0154 150.201 24.25C151.141 25.9985 152.638 26.6877 154.597 26.6369C156.499 26.5862 157.754 25.6357 158.601 24.0323C159.243 22.8207 159.435 21.493 159.364 20.1218L159.357 20.1291Z" fill="#F1F1F1"/>
<path d="M201.749 20.7842C200.489 20.7842 199.207 20.9162 197.968 20.7549C195.911 20.4837 195.882 21.5466 196.346 22.9981C196.925 24.8235 197.86 26.341 199.931 26.6563C202.148 26.9935 204.111 26.5829 205.212 24.347C205.653 23.4527 206.197 22.5803 207.211 23.1961C208.232 23.8119 207.312 24.6623 206.979 25.3C205.769 27.6166 203.756 28.6869 201.22 28.6942C198.504 28.7016 196.244 27.6899 194.977 25.1388C193.18 21.5173 193.361 17.8958 195.527 14.4943C197.237 11.8039 200.967 10.8655 203.959 12.1998C206.284 13.2407 208.377 17.2654 207.942 19.7432C207.769 20.7476 207.095 20.7769 206.349 20.7769C204.813 20.7769 203.285 20.7769 201.749 20.7769V20.7842ZM201.17 18.9442C201.619 18.9442 202.097 19.0468 202.51 18.9222C203.611 18.6069 205.429 19.8019 205.733 18.1524C206.023 16.591 205.11 14.9855 203.56 14.0691C201.46 12.8229 198.787 13.358 197.302 15.374C196.657 16.2537 195.918 17.302 196.353 18.3504C196.824 19.4867 198.099 18.7975 199.018 18.9222C199.721 19.0175 200.453 18.9442 201.17 18.9442Z" fill="#F1F1F1"/>
<path d="M175.568 20.6043C175.568 21.9674 175.553 23.3377 175.583 24.7008C175.598 25.3163 175.456 26.0052 176.11 26.4449C176.681 26.826 178.238 26.6501 177.328 27.8959C176.674 28.7826 175.185 28.8119 174.606 27.9398C173.516 26.2983 172.651 27.1557 171.531 27.7273C169.839 28.5921 168.042 28.9951 166.11 28.4382C163.907 27.8006 162.523 26.5402 162.418 24.2025C162.305 21.8648 163.538 20.3185 165.689 19.6516C167.546 19.0727 169.531 18.8895 171.463 18.5451C172.433 18.3765 173.343 18.142 173.463 16.9988C173.583 15.863 173.395 14.8004 172.365 14.0676C170.32 12.6239 166.734 13.4227 165.568 15.6578C165.125 16.5078 164.846 17.5851 163.658 16.9036C162.681 16.3466 163.425 15.4013 163.741 14.7124C164.899 12.2135 168.147 11.0777 171.794 11.8251C174.448 12.3674 175.531 13.855 175.583 17.0501C175.606 18.2373 175.583 19.4171 175.583 20.6043H175.568ZM168.486 26.7234C169.892 26.7966 171.418 26.3643 172.523 25.1331C173.696 23.8214 174.17 22.0406 173.501 20.5603C172.982 19.4098 171.523 20.6263 170.463 20.5897C169.455 20.5457 168.418 20.7289 167.418 20.9268C165.546 21.2932 164.29 22.3997 164.493 24.3051C164.711 26.3569 166.388 26.7747 168.486 26.7307V26.7234Z" fill="#F1F1F1"/>
<path d="M62.3945 13.7784C63.1338 13.1689 63.7057 12.6182 64.3613 12.1923C65.1146 11.7003 66.1119 11.3185 66.8164 11.8692C67.8486 12.6843 67.2697 14.0574 67.2907 15.1808C67.3116 16.4732 66.2863 16.1061 65.5679 16.1868C63.1965 16.4291 62.3387 18.074 62.2619 20.3062C62.1852 22.487 62.1434 24.6826 62.255 26.8561C62.3456 28.6257 61.411 28.7138 60.1486 28.6918C58.9281 28.6771 57.9656 28.6918 58.0074 26.8855C58.105 22.7954 57.9934 18.6908 58.0702 14.6008C58.0841 13.6829 57.3797 12.207 59.0675 12.0014C60.4834 11.8251 62.0388 11.5755 62.4014 13.7857L62.3945 13.7784Z" fill="#F1F1F1"/>
<path d="M138.875 28.6943C136.173 28.6577 133.954 27.1158 133.223 24.7846C133.034 24.1854 132.661 23.4838 133.45 23.1257C134.231 22.7676 134.786 23.1038 135.1 23.9807C136.056 26.6773 138.232 26.9989 140.656 26.6481C142.044 26.4435 143.015 25.6323 143.175 24.1854C143.336 22.7896 142.423 22.0369 141.241 21.5619C139.466 20.853 137.488 20.9115 135.75 20.0126C133.267 18.7264 132.501 15.7594 134.165 13.6036C136.589 10.454 142.694 11.1409 144.3 14.7802C144.585 15.4233 145.38 16.3441 144.205 16.8556C143.373 17.221 142.934 16.5268 142.621 15.7814C141.657 13.4794 139.736 13.2456 137.634 13.6402C136.531 13.8448 135.567 14.3198 135.458 15.701C135.356 16.9945 135.932 17.7983 137.079 18.2149C138.101 18.5876 139.138 18.9091 140.189 19.1649C144.022 20.1149 145.607 21.7372 145.271 24.4265C144.942 27.0354 142.401 28.7308 138.868 28.687L138.875 28.6943Z" fill="#F1F1F1"/>
<path d="M180.848 20.3746C180.848 21.5712 181.025 22.7238 181.534 23.8324C182.373 25.6604 183.729 26.6589 185.799 26.7396C187.987 26.8277 189.542 25.9467 190.337 23.9352C190.706 23.0028 191.089 22.0631 192.231 22.599C193.373 23.135 192.503 24.0453 192.216 24.706C191.089 27.3196 189.011 28.6411 186.182 28.6925C183.412 28.7439 181.209 27.7087 179.832 25.1759C176.575 19.1999 179.898 11.7483 185.947 11.6015C188.481 11.5428 190.691 12.3063 191.818 14.8171C192.12 15.4925 192.99 16.3955 192.076 16.9975C191.037 17.6876 190.558 16.7185 190.043 15.8816C188.613 13.5764 186.551 12.9009 184.208 13.7672C183.206 14.1343 182.491 14.7657 181.946 15.654C181.062 17.1149 180.76 18.6934 180.848 20.3746Z" fill="#F1F1F1"/>
</svg>
