<svg width="210" height="40" viewBox="0 0 210 40" fill="none" xmlns="http://www.w3.org/2000/svg">
<path d="M76.7359 0H80.4591C83.1125 6.0449 85.7569 12.0947 88.4071 18.1404C87.0016 18.142 85.5968 18.1404 84.1913 18.1404C83.63 16.7959 83.0787 15.4465 82.5175 14.102H74.5735C74.0123 15.4482 73.4651 16.8 72.8973 18.1429C71.5288 18.138 70.1604 18.1429 68.792 18.1404C71.4372 12.0931 74.0899 6.04816 76.7359 0ZM78.5253 4.82939C77.6842 6.74776 76.8523 8.66939 76.0138 10.5886C77.7024 10.5878 79.3911 10.5886 81.0797 10.5878C80.2403 8.66776 79.4084 6.74531 78.5674 4.82694C78.5566 4.82694 78.5352 4.82857 78.5253 4.82939Z" fill="#F1F1F1"/>
<path d="M49.001 0.121582C50.447 0.121582 51.893 0.121582 53.339 0.121582C54.9369 2.65546 56.5339 5.18934 58.1318 7.72322C59.7288 5.18934 61.3267 2.65709 62.9229 0.123215C64.3697 0.121582 65.8165 0.121582 67.2642 0.123215C67.2642 6.12893 67.2642 12.1346 67.2642 18.1404C65.9321 18.142 64.6008 18.1404 63.2687 18.1404C63.2687 14.2236 63.2662 10.3061 63.2687 6.38934C61.6122 8.87505 59.9483 11.3567 58.2919 13.8424C58.2267 13.9379 58.1532 14.0269 58.0798 14.1167C58.0162 14.0416 57.9551 13.9648 57.8974 13.8865C56.2458 11.4138 54.5943 8.94117 52.9428 6.46934C52.9461 10.3591 52.9436 14.2497 52.9436 18.1404C51.6297 18.1412 50.3149 18.1404 49.001 18.1412V0.121582V0.121582Z" fill="#F1F1F1"/>
<path d="M110.241 0.122485C111.483 0.124118 112.725 0.117587 113.968 0.126567C116.976 3.82044 119.999 7.50453 123.013 11.1951C123.01 7.50453 123.011 3.81391 123.011 0.122485C124.336 0.122485 125.661 0.122485 126.985 0.122485C126.984 6.12902 126.986 12.1347 126.984 18.1413C125.841 18.1413 124.699 18.1421 123.556 18.1413C120.45 14.3274 117.333 10.5225 114.225 6.70942C114.235 10.52 114.211 14.3306 114.216 18.1413C112.891 18.1421 111.567 18.1413 110.243 18.1413C110.239 12.1355 110.244 6.12902 110.241 0.122485Z" fill="#F1F1F1"/>
<path d="M140.584 0.0922088C141.856 0.0922088 143.127 0.0922088 144.4 0.0922088C144.399 2.4718 144.401 4.85139 144.399 7.2318C146.884 7.23343 149.367 7.2318 151.851 7.23262C151.851 8.48813 151.852 9.74282 151.851 10.9975C149.367 10.9975 146.884 10.9975 144.4 10.9975C144.398 13.3779 144.402 15.7591 144.399 18.1404C143.127 18.1404 141.856 18.1412 140.585 18.1404C140.582 15.7591 140.586 13.3779 140.582 10.9967C138.09 10.9967 135.598 10.9951 133.105 10.9967C133.102 9.74119 133.104 8.4865 133.104 7.23099C135.597 7.23017 138.09 7.23098 140.584 7.23017C140.585 4.85058 140.583 2.47098 140.584 0.0905762V0.0922088Z" fill="#F1F1F1"/>
<path d="M90.0501 18.1412C90.0484 12.1346 90.0484 6.12811 90.0501 0.121582C91.2881 0.121582 92.5269 0.123215 93.7649 0.121582C96.789 3.81056 99.7999 7.50852 102.826 11.195C102.821 7.50444 102.826 3.81383 102.824 0.123215C104.149 0.123215 105.473 0.123215 106.798 0.123215V18.1412C105.656 18.142 104.514 18.1412 103.373 18.142C100.252 14.3306 97.1414 10.5126 94.0241 6.69954C94.0216 10.5134 94.0249 14.3273 94.0224 18.1412C92.6986 18.142 91.3739 18.1412 90.0501 18.1412Z" fill="#F1F1F1"/>
<path d="M49.0008 21.7028C50.3445 21.7004 51.6881 21.7028 53.0318 21.7012C53.0318 24.0775 53.0219 26.453 53.0277 28.8293C55.715 28.8318 58.4031 28.8285 61.0905 28.831C61.0962 26.4546 61.088 24.0783 61.0946 21.702C62.4349 21.7012 63.7761 21.7012 65.1173 21.702C65.1198 27.7102 65.1173 33.7183 65.1173 39.7265C63.7753 39.7273 62.4333 39.7281 61.0913 39.7265C61.0913 37.3183 61.0913 34.9101 61.0913 32.502C58.4023 32.4995 55.7142 32.502 53.0252 32.502C53.0252 34.911 53.0252 37.3191 53.0252 39.7281C51.684 39.7289 50.342 39.7273 49 39.7281V21.7036L49.0008 21.7028Z" fill="#F1F1F1"/>
<path d="M68.7044 21.702C70.0497 21.7012 71.395 21.7012 72.7403 21.702C72.7444 24.7812 72.7403 27.8604 72.7419 30.9396C72.7477 31.7298 72.7023 32.5298 72.8699 33.3086C73.0416 34.1992 73.4683 35.08 74.2152 35.6335C75.0678 36.2726 76.1968 36.4147 77.2343 36.302C78.1595 36.2098 79.0781 35.7877 79.6402 35.0367C80.2996 34.1731 80.4771 33.0563 80.4853 32C80.4928 28.5673 80.4837 25.1347 80.4903 21.702C81.8306 21.702 83.1718 21.7012 84.5122 21.702C84.5155 24.6988 84.5122 27.6963 84.5138 30.693C84.5312 32.1494 84.5254 33.6326 84.0929 35.0392C83.6827 36.4563 82.8367 37.7722 81.6078 38.6261C80.2782 39.5641 78.6283 39.9404 77.0164 40H76.1168C74.4694 39.9428 72.7766 39.5469 71.4412 38.5518C70.2841 37.7012 69.4934 36.4294 69.108 35.0669C68.7745 33.9396 68.6928 32.7575 68.7035 31.5886C68.7035 28.293 68.7019 24.9975 68.7035 21.702H68.7044Z" fill="#F1F1F1"/>
<path d="M88.0925 21.7012C89.5385 21.7012 90.9837 21.702 92.4288 21.7012C93.9392 24.235 95.443 26.773 96.9517 29.3077C98.4629 26.7738 99.965 24.2342 101.478 21.7012C102.923 21.702 104.368 21.7012 105.814 21.702C105.817 27.7102 105.813 33.7183 105.815 39.7265C104.481 39.7289 103.147 39.7265 101.813 39.7273C101.808 35.8146 101.811 31.9012 101.811 27.9877C100.192 30.5444 98.5809 33.1069 96.9525 35.6579C96.9237 35.6555 96.8667 35.6506 96.8386 35.6481C95.2366 33.1248 93.6421 30.595 92.0434 28.0693C92.0417 31.955 92.0426 35.8408 92.0426 39.7265C90.7253 39.7281 89.4081 39.7281 88.0908 39.7265C88.0933 33.7183 88.09 27.7093 88.0925 21.7012Z" fill="#F1F1F1"/>
<path d="M109.283 21.7029C110.73 21.7004 112.177 21.7029 113.624 21.7013C115.135 24.2351 116.637 26.7739 118.148 29.3078C119.658 26.7731 121.161 24.2335 122.674 21.7004C124.119 21.7037 125.563 21.7004 127.008 21.7021C127.005 27.7111 127.018 33.7208 127.002 39.7298C125.669 39.7241 124.336 39.7298 123.004 39.7266C123.004 35.8164 123.005 31.9062 123.003 27.996C121.47 30.4172 119.938 32.8392 118.405 35.2613C118.305 35.4123 118.226 35.5837 118.078 35.6972C116.441 33.1682 114.853 30.6074 113.236 28.0653V39.7266C111.917 39.7282 110.599 39.7274 109.28 39.7266C109.282 33.7184 109.277 27.7111 109.283 21.7029Z" fill="#F1F1F1"/>
<path d="M130.467 21.7012C135.118 21.702 139.771 21.7004 144.423 21.702C144.424 22.8808 144.423 24.0604 144.423 25.2391C141.101 25.2408 137.778 25.2391 134.455 25.2408V28.8799C137.41 28.8808 140.365 28.8791 143.32 28.8808C143.319 30.062 143.321 31.2432 143.319 32.4244C140.364 32.4244 137.41 32.4244 134.456 32.4244C134.46 33.6791 134.442 34.9338 134.464 36.1877C137.783 36.1779 141.104 36.1853 144.423 36.1836C144.424 37.3648 144.423 38.5453 144.424 39.7265C139.771 39.7289 135.117 39.7265 130.463 39.7281C130.464 33.7191 130.458 27.7102 130.467 21.7012Z" fill="#F1F1F1"/>
<path d="M147.865 21.702C149.207 21.7004 150.548 21.702 151.889 21.7012C151.896 26.5044 151.891 31.3077 151.892 36.111C154.928 36.111 157.964 36.1118 160.999 36.111C161.001 37.3167 161.001 38.5224 160.999 39.7289C156.62 39.7224 152.24 39.7387 147.861 39.7208C147.87 33.715 147.86 27.7085 147.865 21.7028V21.702Z" fill="#F1F1F1"/>
</svg>
