<svg width="210" height="40" viewBox="0 0 210 40" fill="none" xmlns="http://www.w3.org/2000/svg">
<path d="M50.6096 12.428C48.1743 12.428 46.1177 12.3978 44.0631 12.444C43.2835 12.4621 42.9753 12.2694 43.0015 11.4343C43.064 9.60552 43.0418 7.77475 43.0116 5.948C43.0015 5.31767 43.1163 4.98644 43.8616 5.00049C45.8357 5.04064 47.8117 5.03864 49.7857 5.00049C50.5008 4.98644 50.674 5.2715 50.6599 5.92792C50.6257 7.71252 50.7002 9.50113 50.6257 11.2837C50.5874 12.2272 50.9278 12.5484 51.8202 12.4139C51.9491 12.3938 52.084 12.4099 52.215 12.4119C54.2293 12.44 56.4672 11.9361 58.1934 12.6488C59.9237 13.3634 61.0215 15.4511 62.6108 16.6616C65.2918 18.7052 66.2164 21.2004 65.9585 24.5407C65.8014 26.5803 65.4187 28.1421 63.8194 29.5051C62.0609 31.0046 60.4897 32.727 58.8642 34.3751C58.4331 34.8127 57.9839 35.0034 57.3615 34.9914C55.5184 34.9573 53.6733 34.9352 51.8322 34.9974C50.9359 35.0275 50.5975 34.8047 50.6378 33.8552C50.7143 32.0726 50.6216 30.284 50.678 28.4994C50.7022 27.7064 50.4786 27.4294 49.6568 27.4515C47.7714 27.5037 45.882 27.4415 43.9966 27.4796C43.2775 27.4937 42.9834 27.315 43.0035 26.5401C43.0579 24.5809 43.0599 22.6216 43.0197 20.6624C43.0056 20.004 43.346 19.6286 43.7569 19.2231C45.9565 17.0511 48.1481 14.867 50.6096 12.4219V12.428ZM54.4508 27.4716C55.4157 27.4716 56.3826 27.4455 57.3474 27.4816C57.998 27.5057 58.2982 27.327 58.2841 26.6104C58.2458 24.6512 58.2498 22.6899 58.2841 20.7307C58.2961 20.0742 58.0141 19.9156 57.4219 19.9217C55.4459 19.9417 53.4719 19.9417 51.4958 19.9217C50.9057 19.9156 50.6216 20.0622 50.6337 20.7246C50.674 22.728 50.674 24.7314 50.6539 26.7349C50.6478 27.307 50.8654 27.4977 51.4233 27.4816C52.4325 27.4535 53.4417 27.4736 54.4508 27.4736V27.4716Z" fill="#F1F1F1"/>
<path d="M72.1166 32.786C72.0253 34.6479 71.2788 35.144 69.5117 34.7042C68.7711 34.5194 69.053 33.953 69.0511 33.5453C69.0312 28.8815 69.0372 24.2157 69.0372 19.552C69.0372 17.6338 69.0272 15.7157 69.0391 13.7976C69.053 11.763 68.8128 12.1265 70.7308 12.008C71.8188 11.9417 72.1365 12.2772 72.0908 13.3698C72.0054 15.4586 72.059 17.5535 72.0729 19.6464C72.0729 19.9296 71.9459 20.2469 72.1821 20.51C77.0326 17.3888 81.0631 17.5997 84.0473 21.1226C86.7277 24.29 86.6383 29.241 83.8428 32.4105C80.9321 35.7104 76.6078 35.8791 72.1166 32.786ZM71.9776 26.6521C71.9816 29.9922 74.2431 32.3181 77.4655 32.298C80.6541 32.2779 82.9434 29.8837 82.9235 26.5878C82.9037 23.3661 80.6224 21.0423 77.4615 21.0222C74.2172 21.0001 71.9737 23.3059 71.9776 26.6541V26.6521Z" fill="#F1F1F1"/>
<path d="M129.878 20.0699C129.924 20.0048 129.99 19.9437 130.012 19.8684C130.161 19.3821 129.766 18.5926 130.279 18.4298C130.993 18.2019 131.821 18.3199 132.601 18.3362C133.036 18.3443 132.99 18.7228 132.99 19.028C132.99 23.9769 132.984 28.9237 133 33.8726C133.002 34.479 132.743 34.6418 132.214 34.6031C131.911 34.5808 131.6 34.5584 131.302 34.6072C130.253 34.7822 129.882 34.3223 130.04 33.3008C130.066 33.138 130.01 32.961 129.97 32.5845C128.119 34.3223 126.07 35.1831 123.656 34.9674C121.287 34.7558 119.318 33.7607 117.83 31.8581C115.368 28.7121 115.396 23.7877 117.879 20.7984C120.762 17.3268 124.728 17.0867 129.876 20.0699H129.878ZM119.148 26.3659C119.134 29.7357 121.408 32.1653 124.594 32.1836C127.871 32.202 130.247 29.7703 130.241 26.4066C130.235 23.0775 127.943 20.7088 124.698 20.6783C121.464 20.6458 119.16 23.0062 119.146 26.3679L119.148 26.3659Z" fill="#F1F1F1"/>
<path d="M164.076 20.5665C164.076 20.0929 164.106 19.8825 164.07 19.6841C163.869 18.5609 164.354 18.3383 165.415 18.318C166.647 18.2958 167.027 18.5973 166.999 19.9047C166.907 24.339 166.937 28.7773 166.985 33.2115C166.995 34.2113 166.889 34.7091 165.692 34.6666C164.596 34.6282 163.787 34.6079 164.07 33.1771C164.094 33.0516 164.058 32.916 164.036 32.5254C162.121 34.442 159.914 35.2313 157.377 34.9419C154.857 34.6525 152.859 33.4544 151.441 31.3192C149.094 27.7876 149.679 22.6774 152.719 20.0059C155.472 17.5854 160.499 16.8912 164.076 20.5665ZM153.099 26.3932C153.077 29.7285 155.34 32.1591 158.534 32.2279C161.714 32.2947 164.198 29.7851 164.226 26.4721C164.254 23.2198 161.881 20.7628 158.68 20.7345C155.454 20.7062 153.121 23.072 153.099 26.3932Z" fill="#F1F1F1"/>
<path d="M101.03 20.3155C101.044 20.1003 101.09 19.9358 101.06 19.7876C100.805 18.4921 101.468 18.3641 102.556 18.3134C103.812 18.2545 104.013 18.7175 103.999 19.8526C103.937 24.2976 103.971 28.7446 103.977 33.1896C103.977 33.9774 104.183 34.8201 102.863 34.6333C101.939 34.5034 100.731 34.9318 101.06 33.22C101.09 33.0698 101.044 32.9033 101.02 32.5377C99.0357 34.4506 96.8594 35.2588 94.2837 34.9278C92.2033 34.6597 90.4682 33.7805 89.0985 32.1905C86.3112 28.9497 86.3032 23.7797 89.0586 20.6729C92.0914 17.2514 96.482 17.095 101.03 20.3176V20.3155ZM95.6415 32.2149C98.854 32.225 101.228 29.8391 101.278 26.5556C101.328 23.2477 98.9 20.7359 95.6614 20.744C92.4488 20.7521 90.1308 23.1482 90.1268 26.4662C90.1228 29.7883 92.4409 32.2047 95.6415 32.2149Z" fill="#F1F1F1"/>
<path d="M139.382 24.9505C141.242 23.3578 143.245 21.9273 144.876 20.1664C146.54 18.3731 148.473 18.6589 150.873 18.7055C149.88 19.5727 149.145 20.2232 148.399 20.8655C146.85 22.1968 145.32 23.5503 143.734 24.837C143.117 25.3375 143.043 25.6374 143.61 26.2636C146.102 29.0193 148.533 31.8318 151 34.6403C148.88 35.386 147.169 34.9706 145.833 33.4103C144.422 31.7629 143.041 30.0872 141.593 28.4702C141.301 28.144 141.133 27.2889 140.463 27.7043C139.873 28.069 139.128 28.4236 139.169 29.382C139.23 30.8308 139.134 32.2857 139.204 33.7325C139.249 34.6403 138.982 35.0577 138.018 34.9159C137.755 34.8774 137.478 34.8794 137.215 34.9159C136.291 35.0455 135.986 34.7072 136.001 33.7609C136.054 29.8481 136.023 25.9353 136.023 22.0225C136.023 19.0763 136.06 16.13 136.001 13.1858C135.982 12.2557 136.258 11.889 137.199 12.0288C137.462 12.0673 137.739 12.0673 138.002 12.0288C138.93 11.8951 139.224 12.2395 139.21 13.1797C139.154 16.7399 139.183 20.3022 139.193 23.8624C139.193 24.1907 139.07 24.5493 139.382 24.9485V24.9505Z" fill="#F1F1F1"/>
<path d="M110.335 20.1769C111.695 18.3902 113.597 17.8667 115.8 18.0274C116.82 18.1016 117.204 18.5344 116.897 19.4721C116.681 20.1378 117.312 21.3227 115.571 21.0425C112.459 20.5437 110.339 22.5057 110.233 25.801C110.148 28.4368 110.127 31.0809 110.242 33.7126C110.298 35.0233 109.656 35.0315 108.7 34.9882C107.809 34.947 106.966 35.219 107.001 33.7229C107.105 29.1189 107.036 24.5129 107.043 19.9069C107.043 19.1939 106.77 18.2686 108.099 18.4829C108.975 18.623 110.392 17.9285 110.1 19.7936C110.087 19.876 110.121 19.9708 110.148 20.0553C110.156 20.0842 110.21 20.0986 110.335 20.1749V20.1769Z" fill="#F1F1F1"/>
</svg>
