<svg width="210" height="40" viewBox="0 0 210 40" fill="none" xmlns="http://www.w3.org/2000/svg">
<g clip-path="url(#clip0_245_3532)">
<path d="M2.08006 5.7C0.470059 7.69 0.0300586 8.07 0.0100586 10.77C-0.00994141 14.67 5.85937e-05 29.48 5.85937e-05 29.48C5.85937e-05 29.48 3.12006 25.7 4.99006 23.29C6.06006 22.03 6.65006 20.43 6.64006 18.78C6.64006 13.51 6.64006 0 6.64006 0C6.64006 0 3.81006 3.55 2.07006 5.7H2.08006Z" fill="#F1F1F1"/>
<path d="M24.6299 8.89014L16.1299 8.91014C16.1299 8.91014 9.16995 17.4201 8.05995 18.7901C6.93995 20.0701 6.93995 21.9901 8.06995 23.2601C8.46995 23.7301 12.1799 27.9001 12.4099 28.1301C13.1199 28.9501 16.3399 32.7101 16.3399 32.7101L25.0699 32.7001L14.8999 20.8801C18.4999 16.4001 24.6099 8.89014 24.6099 8.89014H24.6299Z" fill="#F1F1F1"/>
<path d="M47.5399 13.6001H43.8499L37.8299 21.1801V13.6301H34.6499V29.4601H37.8299V21.6201L44.5599 29.4601H48.4899L41.4199 21.2501L47.5399 13.6001Z" fill="#F1F1F1"/>
<path d="M202.83 21.2501L208.95 13.6001H205.26L199.25 21.1701V13.6301H196.06V29.4601H199.25V21.6201L205.97 29.4601H209.9L202.83 21.2501Z" fill="#F1F1F1"/>
<path d="M56.2999 13.1001C51.6399 13.0901 47.8499 16.8501 47.8399 21.5101C47.8299 26.1701 51.5899 29.9601 56.2499 29.9701C60.9099 29.9801 64.6999 26.2201 64.7099 21.5601C64.7099 21.5601 64.7099 21.5401 64.7099 21.5301C64.7099 16.8801 60.9499 13.1201 56.2999 13.1001ZM61.5199 21.5301C61.5199 24.4101 59.1799 26.7501 56.2999 26.7601C53.4099 26.7701 51.0499 24.4301 51.0399 21.5401C51.0299 18.6501 53.3699 16.2901 56.2599 16.2801C59.1499 16.2701 61.5099 18.6101 61.5199 21.5001C61.5199 21.5001 61.5199 21.5201 61.5199 21.5301Z" fill="#F1F1F1"/>
<path d="M85.17 13.0998C82.92 13.0298 80.83 14.2698 79.82 16.2898C79.17 14.2798 77.24 12.9698 75.13 13.0998C73.29 13.0398 71.53 13.8598 70.41 15.3198L70.28 13.5998H67.29V29.4598H70.47V20.9698C70.47 17.8598 71.7 16.2798 74.11 16.2798C76.2 16.2798 77.32 17.4898 77.32 20.8098V29.4498H80.5V20.8098C80.5 17.7298 81.86 16.2798 84.14 16.2798C86.27 16.2798 87.36 17.5598 87.36 20.9698V29.4598H90.54V20.9698C90.54 14.8598 88.12 13.0898 85.16 13.0898L85.17 13.0998Z" fill="#F1F1F1"/>
<path d="M102.79 13.1202C100.64 13.0602 98.61 14.0902 97.37 15.8402L97.2 13.6102H94.29V35.4202H97.4V27.3202C98.65 29.0502 100.67 30.0502 102.81 29.9902C107.53 29.9902 110.53 25.9502 110.53 21.5702C110.53 16.8402 107.23 13.1202 102.8 13.1202H102.79ZM102.29 26.7802C99.39 26.6102 97.19 24.1302 97.36 21.2302C97.52 18.5702 99.64 16.4502 102.3 16.3002C105.19 16.4202 107.45 18.8602 107.33 21.7502C107.22 24.4902 105.02 26.6802 102.29 26.7802Z" fill="#F1F1F1"/>
<path d="M123.28 13.6001V22.4601C123.29 25.0801 121.72 26.5601 119.66 26.5601C117.6 26.5601 116.13 25.0801 116.13 22.4601V13.6001H112.93V22.4701C112.93 26.7701 115.85 29.6601 119.67 29.6601C123.49 29.6601 126.49 26.7601 126.48 22.4701V13.6001H123.28Z" fill="#F1F1F1"/>
<path d="M134.23 24.35V16.71H138.02V13.6H134.23V10.52H131.26V11.88C131.4 12.8 130.77 13.66 129.85 13.8C129.72 13.82 129.59 13.82 129.46 13.81H128.93V16.71H131.04V24.35C131.04 27.84 132.47 29.73 135.08 29.73C136.08 29.72 137.08 29.56 138.04 29.27V26.31C137.42 26.51 136.77 26.64 136.11 26.68C134.8 26.68 134.22 25.81 134.22 24.35H134.23Z" fill="#F1F1F1"/>
<path d="M144.93 16.09L144.74 13.6H141.75V29.46H144.94V22.63C144.94 17.66 147.65 16.47 149.94 16.44C150.1 16.44 150.26 16.44 150.4 16.45L150.92 12.96C148.53 12.92 146.27 14.1 144.93 16.08V16.09Z" fill="#F1F1F1"/>
<path d="M159.94 13.1001C155.28 13.0901 151.5 16.8501 151.48 21.5101C151.46 26.1701 155.23 29.9501 159.89 29.9701C164.55 29.9801 168.33 26.2201 168.35 21.5601C168.35 21.5601 168.35 21.5401 168.35 21.5301C168.35 16.8801 164.59 13.1201 159.94 13.1001ZM165.16 21.5301C165.16 24.4101 162.82 26.7501 159.94 26.7601C157.05 26.7701 154.69 24.4301 154.68 21.5401C154.67 18.6501 157.01 16.2901 159.9 16.2801C162.79 16.2701 165.15 18.6101 165.16 21.5001V21.5301Z" fill="#F1F1F1"/>
<path d="M179.21 13.2101C177.31 13.1501 175.5 13.9801 174.31 15.4601L174.16 13.6101H171.17V29.4701H174.35V20.8901C174.35 17.8101 175.84 16.2901 178.18 16.2901C180.52 16.2901 181.83 17.5201 181.83 20.8901V29.4701H185.01V20.8901C185.01 14.8801 182.33 13.2101 179.19 13.2101H179.21Z" fill="#F1F1F1"/>
<path d="M192.27 13.6001H189.08V29.4601H192.27V13.6001Z" fill="#F1F1F1"/>
<path d="M190.68 7.56006C189.64 7.56006 188.79 8.41006 188.79 9.45006C188.79 10.4901 189.64 11.3401 190.68 11.3401C191.72 11.3401 192.57 10.4901 192.57 9.45006C192.57 8.41006 191.72 7.56006 190.68 7.56006Z" fill="#F1F1F1"/>
</g>
<defs>
<clipPath id="clip0_245_3532">
<rect width="210" height="40" fill="white"/>
</clipPath>
</defs>
</svg>
