<svg width="210" height="40" viewBox="0 0 210 40" fill="none" xmlns="http://www.w3.org/2000/svg">
<g clip-path="url(#clip0_245_3596)">
<path d="M139.474 7.23708C139.474 5.98072 140.094 5.35254 141.335 5.35254C142.426 5.35254 142.972 5.95223 142.972 7.1516C142.972 8.43238 142.337 9.07277 141.066 9.07277C140.005 9.07277 139.474 8.53821 139.474 7.46908V7.23708Z" fill="#F1F1F1"/>
<path d="M147.881 7.24115C147.881 8.46766 147.27 9.08091 146.048 9.08091C144.908 9.08091 144.337 8.47851 144.337 7.27371C144.337 5.99293 144.974 5.35254 146.247 5.35254C147.336 5.35254 147.881 5.90474 147.881 7.00914V7.24115Z" fill="#F1F1F1"/>
<path d="M132.416 27.5925C131.376 29.3427 129.763 29.7904 127.999 29.8067C123.53 29.8474 119.06 29.8759 114.595 29.8067C112.047 29.77 110.548 28.2111 110.52 25.3538C110.463 19.1466 110.503 12.9395 110.503 6.72823C110.503 4.76229 110.528 2.79634 110.491 0.830402C110.479 0.171017 110.706 -0.0487774 111.34 0.00413617C111.905 0.0489092 112.478 0.0448389 113.043 0.00413617C113.656 -0.0406368 113.847 0.199509 113.843 0.80598C113.819 4.03778 113.831 7.27364 113.831 10.5054C113.831 15.1374 113.831 19.7653 113.831 24.3973C113.831 26.1475 114.359 26.6848 116.07 26.6848C119.402 26.6848 122.734 26.6929 126.065 26.6848C128.954 26.6766 129.621 25.9888 129.613 23.3634C129.613 22.3296 129.645 21.2957 129.596 20.2619C129.491 18.0477 128.182 16.7492 125.972 16.6149C123.701 16.4765 121.429 16.5498 119.154 16.562C118.455 16.5661 118.26 16.387 118.215 15.6584C118.138 14.3437 118.496 13.3221 119.39 12.3167C122.031 9.34541 124.578 6.29271 127.142 3.25221C127.504 2.82484 127.768 2.71494 128.199 3.12604C128.609 3.51678 129.06 3.8709 129.515 4.20873C130.043 4.59947 130.076 4.94545 129.625 5.46237C127.626 7.75801 125.659 10.0862 123.68 12.4063C123.416 12.7156 123.168 13.0331 122.79 13.4971C124.148 13.4971 125.342 13.5093 126.541 13.4971C127.431 13.4849 128.288 13.6273 129.117 13.9367C131.709 14.9013 132.985 16.8347 133.148 19.5333C133.229 20.848 133.237 22.1708 133.184 23.4896C133.099 25.6265 134.139 26.5057 136.199 26.6889C137.556 26.811 138.933 26.754 140.303 26.7214C141.412 26.697 141.965 26.0132 141.969 24.7351C141.977 21.2957 141.993 17.8523 141.952 14.4129C141.944 13.6965 142.143 13.4116 142.863 13.4971C143.622 13.5866 144.589 13.1715 145.097 13.6843C145.569 14.1646 145.236 15.113 145.24 15.8538C145.256 18.9838 145.252 22.1139 145.248 25.2439C145.248 28.2274 143.631 29.8596 140.652 29.823C138.848 29.8026 137.036 29.998 135.244 29.6927C134.009 29.4811 133.042 28.8583 132.408 27.5965L132.416 27.5925Z" fill="#F1F1F1"/>
<path d="M88.8464 25.3298C89.1958 26.5427 89.6062 27.4789 90.301 28.2604C90.5285 28.5168 90.366 28.6511 90.1588 28.8099C89.4559 29.3472 88.6351 29.5466 87.7859 29.6646C86.6319 29.8234 85.4699 29.8274 84.3078 29.7705C83.2757 29.7216 82.3737 29.3268 81.5367 28.5412C81.4961 29.4896 81.5082 30.3322 81.3295 31.1584C80.4396 35.2368 77.4572 37.3086 73.6175 37.7116C72.0491 37.8744 70.4726 37.7482 68.9286 37.3778C65.2758 36.4905 62.9029 33.6291 62.6713 29.7705C62.4803 26.5916 63.427 23.718 65.0848 21.0397C65.3124 20.6693 65.5724 20.6205 65.9178 20.8159C66.5476 21.1659 67.1652 21.5444 67.8072 21.8701C68.2541 22.098 68.2257 22.3381 68.0022 22.7248C66.9701 24.4995 66.1534 26.3474 66.0884 28.4598C65.9868 31.7608 67.7909 33.9751 71.0536 34.4716C72.5367 34.6996 73.9954 34.5978 75.3606 33.9466C77.2175 33.0592 78.1317 31.5085 78.1358 29.4815C78.1561 20.071 78.1439 10.6565 78.1399 1.24598C78.1399 0.43193 78.5502 0.0249023 79.371 0.0249023C80.7931 0.0249023 81.5042 0.727703 81.5042 2.1333C81.5042 9.19116 81.5042 16.2531 81.5042 23.3109C81.5042 25.6676 82.4956 26.6648 84.8807 26.7178C85.2951 26.7259 85.7096 26.7015 86.12 26.7259C87.217 26.7951 88.176 26.559 88.8464 25.3298Z" fill="#F1F1F1"/>
<path d="M106.241 23.8071C106.241 25.6184 106.225 27.4297 106.253 29.2409C106.262 29.709 106.14 29.8596 105.652 29.8555C102.267 29.8311 98.8828 29.8677 95.5023 29.8189C92.4508 29.7782 90.2201 27.4622 90.1673 24.2426C90.1104 20.8277 90.1632 17.4127 90.147 13.9978C90.147 13.5337 90.2689 13.375 90.7524 13.3791C94.1086 13.3994 97.4688 13.3546 100.825 13.3994C103.844 13.4401 106.123 15.7235 106.217 18.764C106.27 20.4451 106.225 22.1261 106.225 23.8071C106.229 23.8071 106.233 23.8071 106.241 23.8071ZM102.828 22.3662C102.828 21.255 102.828 20.1439 102.828 19.0327C102.828 18.9798 102.828 18.9309 102.824 18.878C102.763 17.7628 102.052 16.9202 100.955 16.8917C98.635 16.8307 96.3108 16.8632 93.9867 16.851C93.7023 16.851 93.556 16.9406 93.56 17.2499C93.6007 19.7043 93.4503 22.1627 93.6372 24.609C93.7185 25.6876 94.5515 26.3958 95.612 26.4039C97.8305 26.4202 100.053 26.3999 102.272 26.4162C102.71 26.4162 102.849 26.29 102.836 25.8504C102.808 24.6863 102.828 23.5263 102.828 22.3622V22.3662Z" fill="#F1F1F1"/>
<path d="M126.337 37.5557C126.337 37.169 126.349 36.7783 126.337 36.3916C126.301 35.5206 126.439 34.6902 127.272 34.2547C128.182 33.7744 129.173 33.7581 130.088 34.2629C130.425 34.4501 130.571 34.4175 130.921 34.271C132.664 33.5424 134.2 33.75 134.37 36.0497C134.451 37.1528 134.374 38.2721 134.403 39.3792C134.411 39.7699 134.256 39.8513 133.903 39.8554C133.521 39.8595 133.342 39.774 133.354 39.3426C133.379 38.3087 133.371 37.2749 133.358 36.241C133.35 35.4351 132.822 34.8938 132.087 34.91C131.368 34.9263 130.88 35.4432 130.872 36.2288C130.86 37.2627 130.856 38.2965 130.876 39.3303C130.884 39.7292 130.766 39.8595 130.356 39.8636C129.921 39.8636 129.848 39.6885 129.856 39.3141C129.876 38.3331 129.868 37.3522 129.86 36.3672C129.852 35.4432 129.336 34.8856 128.527 34.9141C127.796 34.9426 127.365 35.4636 127.361 36.3468C127.353 37.3278 127.349 38.3087 127.361 39.2937C127.365 39.6519 127.325 39.8595 126.874 39.8676C126.394 39.8758 126.321 39.6682 126.337 39.2652C126.362 38.6995 126.345 38.1296 126.345 37.5598L126.337 37.5557Z" fill="#F1F1F1"/>
<path d="M114.956 36.7003C115.55 36.0043 116.163 35.3205 116.732 34.6C117.118 34.1116 117.569 34.0017 118.239 34.1849C117.74 34.7791 117.297 35.3327 116.817 35.8537C116.541 36.1508 116.525 36.3828 116.744 36.7247C117.378 37.7138 117.975 38.7314 118.593 39.7489C117.809 39.9769 117.346 39.7408 117.025 39.0773C116.744 38.4994 116.362 37.9743 116.037 37.4167C115.862 37.1155 115.745 37.1195 115.481 37.376C114.964 37.8766 114.688 38.4302 114.79 39.1588C114.843 39.5414 114.814 39.8507 114.249 39.8426C113.697 39.8344 113.782 39.5088 113.782 39.1791C113.782 36.8794 113.782 34.5838 113.782 32.2841C113.782 31.9544 113.701 31.6247 114.249 31.6125C114.81 31.6043 114.802 31.9055 114.798 32.2963C114.79 33.7412 114.798 35.1862 114.798 36.6311L114.956 36.6962V36.7003Z" fill="#F1F1F1"/>
<path d="M124.529 37.5634C124.529 38.1576 124.533 38.7519 124.529 39.3461C124.529 39.5171 124.59 39.7572 124.371 39.8142C124.127 39.8834 123.68 39.9282 123.643 39.7776C123.493 39.1304 123.241 39.5944 123.054 39.6921C121.608 40.4492 119.99 39.741 119.93 38.3164C119.893 37.4535 120.214 36.9691 121.018 36.6516C121.587 36.4278 122.181 36.4725 122.77 36.4237C123.026 36.4033 123.456 36.672 123.534 36.1917C123.611 35.7236 123.534 35.2555 123.026 35.0072C122.453 34.7264 121.868 34.8444 121.291 34.9869C121.169 35.0194 121.051 35.0886 120.941 35.1538C120.592 35.3613 120.502 35.0642 120.36 34.8607C120.169 34.5799 120.336 34.4374 120.567 34.3275C121.384 33.9449 122.25 33.8106 123.127 34.01C124.086 34.2257 124.497 34.7712 124.525 35.7724C124.541 36.3667 124.525 36.961 124.525 37.5552L124.529 37.5634ZM122.12 39.1019C122.237 39.0775 122.497 39.0572 122.737 38.9798C123.412 38.76 123.517 38.2309 123.42 37.6244C123.318 36.9854 122.806 37.3721 122.489 37.2907C122.302 37.2418 122.083 37.2988 121.88 37.3192C121.299 37.3761 120.775 37.5593 120.819 38.2635C120.864 38.9513 121.404 39.0897 122.12 39.106V39.1019Z" fill="#F1F1F1"/>
<path d="M111.941 37.5512C111.941 38.1455 111.949 38.7397 111.937 39.334C111.933 39.5172 112.047 39.798 111.738 39.8306C111.502 39.855 111.124 39.9852 111.051 39.7125C110.938 39.2892 110.816 39.4643 110.621 39.5986C109.897 40.1074 109.101 40.0667 108.325 39.7939C107.606 39.5416 107.338 38.9066 107.333 38.1943C107.333 37.4169 107.74 36.8756 108.479 36.6232C109.024 36.436 109.597 36.4726 110.157 36.4319C110.43 36.4115 110.897 36.7005 110.958 36.147C111.011 35.6423 110.929 35.1579 110.336 34.9666C109.719 34.7672 109.105 34.8119 108.536 35.0887C108.199 35.2556 107.984 35.2922 107.797 34.9137C107.577 34.4741 107.91 34.352 108.187 34.2502C108.943 33.9612 109.731 33.8351 110.531 34.0182C111.49 34.238 111.917 34.7834 111.937 35.7725C111.949 36.3668 111.937 36.961 111.937 37.5553L111.941 37.5512ZM109.479 39.0979C109.905 39.1061 110.304 39.0125 110.608 38.699C110.982 38.3205 110.986 37.3314 110.617 37.3029C109.983 37.2541 109.324 37.1849 108.719 37.4698C108.15 37.7425 108.045 38.4915 108.516 38.87C108.792 39.0898 109.142 39.0857 109.475 39.0939L109.479 39.0979Z" fill="#F1F1F1"/>
<path d="M141.505 36.9696C141.505 38.8175 140.847 39.7455 139.388 39.9531C138.072 40.1403 136.999 39.3792 136.715 38.0808C136.601 37.5679 136.638 37.0551 136.646 36.5422C136.674 34.9548 137.649 33.9372 139.1 33.9576C140.567 33.9779 141.489 34.9833 141.505 36.5829C141.505 36.7132 141.505 36.8393 141.505 36.9696ZM140.449 37.0632C140.449 36.7783 140.473 36.4934 140.445 36.2125C140.356 35.4188 139.811 34.906 139.08 34.8978C138.373 34.8897 137.844 35.3415 137.71 36.1107C137.658 36.412 137.666 36.7254 137.666 37.0347C137.666 38.3738 138.125 39.0332 139.051 39.0413C139.974 39.0495 140.425 38.4145 140.445 37.0632H140.449Z" fill="#F1F1F1"/>
<path d="M103.722 36.1878C103.722 35.2313 103.697 34.2748 103.73 33.3183C103.746 32.838 103.64 32.6019 103.104 32.663C102.698 32.7077 102.279 32.6467 101.869 32.6792C101.47 32.7077 101.324 32.5775 101.324 32.1623C101.324 31.7349 101.515 31.6413 101.893 31.6454C103.494 31.6576 105.091 31.6617 106.692 31.6454C107.07 31.6413 107.183 31.7716 107.179 32.1379C107.179 32.5083 107.106 32.7484 106.667 32.6752C106.619 32.667 106.566 32.6752 106.513 32.6752C105.37 32.6887 104.798 33.2613 104.798 34.3928C104.798 36.0209 104.786 37.649 104.806 39.2772C104.81 39.6882 104.733 39.8714 104.266 39.8673C103.819 39.8673 103.697 39.7208 103.709 39.2894C103.738 38.2555 103.717 37.2217 103.717 36.1878H103.722Z" fill="#F1F1F1"/>
<path d="M144.451 35.2152C144.451 36.1961 144.455 37.177 144.451 38.1539C144.451 38.5609 144.536 38.8947 145.016 38.9028C145.418 38.911 145.377 39.1674 145.381 39.4279C145.385 39.8105 145.13 39.8064 144.857 39.8105C143.927 39.8268 143.431 39.3221 143.411 38.2109C143.378 36.5868 143.399 34.9628 143.399 33.3347C143.399 32.9236 143.419 32.5084 143.395 32.0973C143.366 31.6822 143.545 31.5723 143.935 31.5682C144.349 31.5641 144.467 31.7269 144.459 32.1177C144.443 33.1475 144.451 34.1813 144.455 35.2111L144.451 35.2152Z" fill="#F1F1F1"/>
</g>
<defs>
<clipPath id="clip0_245_3596">
<rect width="210" height="40" fill="white"/>
</clipPath>
</defs>
</svg>
