<svg width="148" height="40" viewBox="0 0 148 40" fill="none" xmlns="http://www.w3.org/2000/svg">
<path d="M49.6258 8.63574C47.2855 8.63574 44.9977 9.3324 43.0518 10.6377C41.1059 11.943 39.5893 13.7982 38.6937 15.9689C37.7981 18.1395 37.5638 20.528 38.0203 22.8323C38.4769 25.1366 39.6039 27.2532 41.2587 28.9145C42.9136 30.5758 45.022 31.7072 47.3173 32.1656C49.6126 32.6239 51.9918 32.3887 54.154 31.4896C56.3161 30.5905 58.1642 29.0679 59.4644 27.1144C60.7646 25.1609 61.4585 22.8642 61.4585 20.5148C61.4549 17.3654 60.2071 14.346 57.9888 12.1191C55.7705 9.89209 52.7629 8.63938 49.6258 8.63574ZM49.6258 26.3059C48.4849 26.3059 47.3695 25.9662 46.4209 25.3299C45.4723 24.6936 44.7329 23.7891 44.2963 22.7309C43.8597 21.6727 43.7455 20.5084 43.9681 19.385C44.1906 18.2616 44.74 17.2297 45.5468 16.4198C46.3535 15.6099 47.3814 15.0584 48.5003 14.835C49.6193 14.6115 50.7792 14.7262 51.8332 15.1645C52.8873 15.6028 53.7882 16.3451 54.4221 17.2974C55.0559 18.2497 55.3942 19.3694 55.3942 20.5148C55.3925 22.0501 54.7843 23.5221 53.7028 24.6078C52.6214 25.6934 51.1551 26.3041 49.6258 26.3059Z" fill="#1E1E1E"/>
<path d="M75.7019 8.63573C73.6818 8.63405 71.6953 9.15505 69.9341 10.1484V2.97314H63.8691V20.5148C63.8691 22.8642 64.5632 25.1609 65.8634 27.1144C67.1636 29.0679 69.0116 30.5905 71.1738 31.4896C73.3359 32.3887 75.715 32.6239 78.0104 32.1656C80.3057 31.7072 82.4142 30.5759 84.069 28.9145C85.7239 27.2532 86.8508 25.1366 87.3073 22.8323C87.7639 20.5279 87.5296 18.1395 86.634 15.9689C85.7384 13.7983 84.2217 11.943 82.2758 10.6377C80.33 9.33243 78.0422 8.63573 75.7019 8.63573ZM75.7019 26.3058C74.561 26.3058 73.4458 25.9662 72.4972 25.3299C71.5485 24.6935 70.8092 23.7891 70.3725 22.7309C69.9359 21.6727 69.8217 20.5083 70.0443 19.385C70.2669 18.2616 70.8163 17.2298 71.623 16.4199C72.4297 15.61 73.4576 15.0584 74.5766 14.835C75.6956 14.6115 76.8554 14.7262 77.9095 15.1645C78.9635 15.6028 79.8644 16.3451 80.4983 17.2974C81.1322 18.2498 81.4705 19.3694 81.4705 20.5148C81.4687 22.0501 80.8604 23.5221 79.779 24.6078C78.6976 25.6935 77.2313 26.3041 75.7019 26.3058Z" fill="#1E1E1E"/>
<path d="M28.987 20.5147C28.9951 21.2803 28.8519 22.04 28.5657 22.7497C28.2794 23.4594 27.8559 24.1051 27.3194 24.6494C26.783 25.1936 26.1444 25.6258 25.4405 25.9207C24.7366 26.2156 23.9815 26.3674 23.2188 26.3674C22.4561 26.3674 21.701 26.2156 20.9972 25.9207C20.2933 25.6258 19.6547 25.1936 19.1182 24.6494C18.5818 24.1051 18.1582 23.4594 17.8719 22.7497C17.5857 22.04 17.4425 21.2803 17.4506 20.5147H11.3857C11.3857 23.6653 12.6324 26.6868 14.8516 28.9147C17.0707 31.1425 20.0805 32.3941 23.2188 32.3941C26.3572 32.3941 29.367 31.1425 31.5861 28.9147C33.8052 26.6868 35.0519 23.6653 35.0519 20.5147V9.1626H28.9283L28.987 20.5147Z" fill="#1E1E1E"/>
<path d="M125.894 9.1626L120.392 23.5924L114.338 9.1626H107.761L117.26 31.8045L115.217 37.0261H121.711L132.389 9.1626H125.894Z" fill="#1E1E1E"/>
<path d="M94.831 24.6575C94.8543 25.0938 94.9714 25.5198 95.1743 25.9064C95.3771 26.293 95.6609 26.6309 96.0061 26.897C96.8522 27.5107 97.8827 27.814 98.925 27.7562C99.757 27.7946 100.583 27.596 101.307 27.1834C101.596 27.011 101.832 26.7635 101.992 26.467C102.151 26.1706 102.228 25.8363 102.213 25.4997C102.223 25.2872 102.183 25.0755 102.095 24.8818C102.008 24.6881 101.876 24.518 101.71 24.3855C101.24 24.0542 100.71 23.8195 100.15 23.6947C99.4455 23.5042 98.2882 23.2403 96.6779 22.903C95.3435 22.6387 94.0396 22.2381 92.7863 21.7075C91.7775 21.2639 90.9166 20.5393 90.3055 19.6195C89.629 18.5011 89.3018 17.205 89.3661 15.8981C89.3533 14.5457 89.7704 13.2244 90.5569 12.1263C91.3973 10.9655 92.5327 10.0524 93.8446 9.48248C95.3173 8.82697 96.914 8.4996 98.5248 8.52295C100.17 8.49764 101.801 8.83084 103.306 9.49952C104.645 10.0856 105.804 11.0217 106.661 12.2102C107.466 13.3327 107.895 14.6832 107.885 16.0666H101.879C101.86 15.6839 101.764 15.3091 101.597 14.9647C101.43 14.6203 101.195 14.3134 100.906 14.0624C100.232 13.5257 99.3842 13.2562 98.5248 13.3047C97.7776 13.272 97.0372 13.4593 96.3946 13.8435C96.1302 14.0105 95.9147 14.2451 95.7703 14.5232C95.6258 14.8013 95.5576 15.113 95.5726 15.4262C95.5616 15.6343 95.5999 15.8421 95.6844 16.0324C95.769 16.2226 95.8974 16.39 96.059 16.5207C96.5198 16.842 97.0381 17.0708 97.5854 17.1945C98.2782 17.3854 99.4076 17.638 100.974 17.9521C102.328 18.1982 103.655 18.5818 104.932 19.0971C105.949 19.5187 106.827 20.2189 107.465 21.1177C108.151 22.1895 108.486 23.4501 108.421 24.7224C108.433 26.1449 107.999 27.5352 107.181 28.6967C106.308 29.9239 105.12 30.8901 103.742 31.4919C102.196 32.1825 100.519 32.5273 98.8277 32.5026C97.0725 32.5283 95.3326 32.1721 93.7277 31.4585C92.3005 30.8385 91.0618 29.8509 90.137 28.5958C89.2757 27.4141 88.8178 25.9847 88.8313 24.5205L94.831 24.6575Z" fill="#1E1E1E"/>
<path d="M128.404 25.7567C128.811 25.0772 129.39 24.5176 130.081 24.1346C130.79 23.7457 131.584 23.5419 132.391 23.5419C133.198 23.5419 133.993 23.7457 134.701 24.1346C135.393 24.5177 135.971 25.0772 136.379 25.7567C136.786 26.4423 137 27.2254 137 28.0234C137 28.8214 136.786 29.6045 136.379 30.2901C135.971 30.9696 135.393 31.5292 134.701 31.9122C133.993 32.3011 133.199 32.505 132.391 32.505C131.584 32.505 130.79 32.3011 130.081 31.9122C129.39 31.5293 128.811 30.9697 128.404 30.2901C127.997 29.6045 127.782 28.8214 127.782 28.0234C127.782 27.2255 127.997 26.4423 128.404 25.7567ZM135.385 26.2764C135.088 25.7506 134.655 25.3156 134.131 25.0181C133.598 24.7125 132.994 24.5542 132.381 24.5593C131.779 24.5516 131.186 24.7069 130.665 25.0088C130.144 25.3108 129.713 25.7482 129.419 26.2751C129.112 26.8168 128.955 27.4304 128.962 28.0532C128.955 28.6628 129.113 29.2629 129.419 29.7893C129.716 30.3023 130.14 30.7288 130.651 31.0267C131.176 31.334 131.774 31.4926 132.381 31.4855C132.994 31.4908 133.598 31.3324 134.131 31.0267C134.653 30.7322 135.086 30.302 135.385 29.7815C135.69 29.2508 135.847 28.6476 135.841 28.0349C135.847 27.4184 135.689 26.8117 135.385 26.2764ZM132.547 25.642C133.04 25.618 133.525 25.7729 133.914 26.0785C134.083 26.2198 134.218 26.3983 134.308 26.6003C134.398 26.8022 134.44 27.0221 134.431 27.2431C134.436 27.53 134.357 27.8119 134.204 28.0539C134.04 28.3 133.81 28.4948 133.54 28.6156L134.493 30.3851H133.187L132.379 28.8875H131.82V30.3831H130.64V25.642H132.547ZM131.822 27.888H132.485C132.677 27.8979 132.865 27.8348 133.013 27.7111C133.078 27.6523 133.129 27.5799 133.163 27.499C133.196 27.4182 133.212 27.3308 133.209 27.2431C133.214 27.1545 133.2 27.0658 133.168 26.9832C133.136 26.9005 133.086 26.8259 133.022 26.7647C132.869 26.6444 132.677 26.5851 132.483 26.5983H131.821L131.822 27.888Z" fill="#1E1E1E"/>
<path d="M17 3H11V9H17V3Z" fill="#1E1E1E"/>
</svg>
