<svg width="133" height="30" viewBox="0 0 133 30" fill="none" xmlns="http://www.w3.org/2000/svg">
<g clip-path="url(#clip0_327_3306)">
<path d="M14.472 14.5763V24.5035C8.65211 24.5035 4.01377 19.424 4.68029 13.4293C5.18623 8.87446 8.81571 5.21965 13.3389 4.71017C19.2891 4.04205 24.3304 8.71582 24.3304 14.5733C24.3304 16.0865 23.991 17.5173 23.3881 18.7986L26.7874 22.2216C28.4537 19.5033 29.2686 16.1963 28.8263 12.6788C27.9962 6.07081 22.6974 0.823494 16.1171 0.0913107C6.90402 -0.930695 -0.815431 6.76944 0.0692157 16.0224C0.787234 23.5151 7.19486 29.1529 14.6689 29.1529H19.0891V25.8032L22.4156 29.1529H28.9475L14.472 14.5763Z" fill="#1B8FFA"/>
<path d="M39.286 29.1684C36.9107 29.1684 35.0112 28.3965 33.5842 26.8529C32.1603 25.3092 31.4453 23.2316 31.4453 20.6202C31.4453 18.0087 32.1482 15.9616 33.5539 14.4179C34.9597 12.8743 36.8108 12.0994 39.1072 12.0994C41.2249 12.0994 42.8882 12.6973 44.0939 13.8932V12.4868H48.1324V28.8115H44.1545V27.2281C43.0851 28.5247 41.4612 29.1714 39.286 29.1714V29.1684ZM40.1767 25.4617C42.0368 25.4617 43.3638 24.7448 44.1545 23.3079V17.8958C43.7577 17.2369 43.1851 16.7243 42.4337 16.3552C41.6824 15.986 40.9007 15.803 40.0888 15.803C38.7618 15.803 37.6924 16.2271 36.8835 17.0752C36.0715 17.9233 35.6656 19.1039 35.6656 20.6171C35.6656 22.1303 36.0715 23.2926 36.8835 24.159C37.6954 25.0255 38.7921 25.4587 40.1797 25.4587L40.1767 25.4617Z" fill="#1E1E1E"/>
<path d="M51.9287 28.8085V12.4869H55.8763V14.6103C57.1245 12.9568 58.8059 12.13 60.9236 12.13C61.4175 12.13 61.7931 12.1788 62.0507 12.2795V16.7336C61.2993 16.5353 60.6449 16.4346 60.0905 16.4346C58.8817 16.4346 57.9031 16.8343 57.1518 17.6305C56.4004 18.4268 56.0247 19.583 56.0247 21.0993V28.8116H51.9287V28.8085Z" fill="#1E1E1E"/>
<path d="M73.4871 29.1684C71.33 29.1684 69.7061 28.5216 68.6185 27.2251V28.8084H64.6709V6.14734H68.6791V13.8902C69.8849 12.6943 71.5481 12.0963 73.6658 12.0963C75.9623 12.0963 77.8134 12.8682 79.2191 14.4149C80.6248 15.9586 81.3277 18.027 81.3277 20.6171C81.3277 23.2072 80.6158 25.3061 79.1888 26.8498C77.7649 28.3935 75.8623 29.1654 73.4871 29.1654V29.1684ZM72.5964 25.4617C73.9809 25.4617 75.0746 25.0346 75.8774 24.1774C76.6803 23.3201 77.0802 22.1333 77.0802 20.6202C77.0802 19.107 76.6803 17.9233 75.8774 17.0782C75.0746 16.2301 74.0112 15.8061 72.6842 15.8061C71.8723 15.8061 71.0906 15.9891 70.3393 16.3582C69.588 16.7274 69.0123 17.2399 68.6185 17.8989V23.3109C69.4304 24.7448 70.7574 25.4648 72.5964 25.4648V25.4617Z" fill="#1E1E1E"/>
<path d="M92.4011 29.168C89.7078 29.168 87.5477 28.3962 85.9147 26.8525C84.2818 25.3088 83.4668 23.2312 83.4668 20.6198C83.4668 18.0083 84.2878 15.9918 85.9299 14.445C87.5719 12.9014 89.729 12.1265 92.4011 12.1265C95.0732 12.1265 97.2212 12.8983 98.8451 14.445C100.469 15.9887 101.281 18.048 101.281 20.6198C101.281 23.1916 100.469 25.3088 98.8451 26.8525C97.2212 28.3962 95.0732 29.168 92.4011 29.168ZM92.4011 25.4003C93.7857 25.4003 94.9096 24.961 95.7701 24.0855C96.6305 23.2099 97.0607 22.0537 97.0607 20.6167C97.0607 19.1798 96.6305 18.0602 95.7701 17.1938C94.9096 16.3274 93.7857 15.8942 92.4011 15.8942C91.0166 15.8942 89.8623 16.3274 89.0019 17.1938C88.1415 18.0602 87.7113 19.2012 87.7113 20.6167C87.7113 22.0323 88.1415 23.2068 89.0019 24.0855C89.8623 24.9641 90.9954 25.4003 92.4011 25.4003Z" fill="#1E1E1E"/>
<path d="M104.333 28.808V12.4865H108.281V13.9813C109.783 12.7458 111.516 12.1265 113.476 12.1265C115.555 12.1265 117.103 12.6603 118.124 13.7251C119.142 14.7928 119.654 16.5714 119.654 19.0609V28.808H115.585V20.0768C115.585 18.5209 115.294 17.4256 114.709 16.788C114.125 16.1504 113.279 15.8301 112.171 15.8301C110.765 15.8301 109.517 16.3975 108.429 17.5355V28.808H104.333Z" fill="#1E1E1E"/>
<path d="M119.367 11.5888V0.052002H121.709V11.5888H119.367Z" fill="#1E1E1E"/>
<path d="M126.966 11.5888V2.21676H123.314V0.052002H132.946V2.21676H129.294V11.5931H126.966V11.5888Z" fill="#1E1E1E"/>
</g>
<defs>
<clipPath id="clip0_327_3306">
<rect width="133" height="30" fill="white"/>
</clipPath>
</defs>
</svg>
