<svg width="133" height="30" viewBox="0 0 133 30" fill="none" xmlns="http://www.w3.org/2000/svg">
<g clip-path="url(#clip0_245_3190)">
<path d="M14.472 14.5763V24.5035C8.65211 24.5035 4.01377 19.424 4.68029 13.4293C5.18623 8.87446 8.81571 5.21965 13.3389 4.71017C19.2891 4.04205 24.3304 8.71582 24.3304 14.5733C24.3304 16.0865 23.991 17.5173 23.3881 18.7986L26.7874 22.2216C28.4537 19.5033 29.2686 16.1963 28.8263 12.6788C27.9962 6.07081 22.6974 0.823494 16.1171 0.0913107C6.90402 -0.930695 -0.815431 6.76944 0.0692157 16.0224C0.787234 23.5151 7.19486 29.1529 14.6689 29.1529H19.0891V25.8032L22.4156 29.1529H28.9475L14.472 14.5763Z" fill="#1B8FFA"/>
<path d="M39.2864 29.1684C36.9112 29.1684 35.0117 28.3965 33.5847 26.8529C32.1608 25.3092 31.4458 23.2316 31.4458 20.6202C31.4458 18.0087 32.1487 15.9616 33.5544 14.4179C34.9602 12.8743 36.8112 12.0994 39.1077 12.0994C41.2254 12.0994 42.8886 12.6973 44.0944 13.8932V12.4868H48.1329V28.8115H44.155V27.2281C43.0856 28.5247 41.4617 29.1714 39.2864 29.1714V29.1684ZM40.1771 25.4617C42.0373 25.4617 43.3643 24.7448 44.155 23.3079V17.8958C43.7582 17.2369 43.1856 16.7243 42.4342 16.3552C41.6829 15.986 40.9012 15.803 40.0893 15.803C38.7623 15.803 37.6929 16.2271 36.884 17.0752C36.072 17.9233 35.6661 19.1039 35.6661 20.6171C35.6661 22.1303 36.072 23.2926 36.884 24.159C37.6959 25.0255 38.7926 25.4587 40.1802 25.4587L40.1771 25.4617Z" fill="#F1F1F1"/>
<path d="M51.9292 28.8085V12.4869H55.8768V14.6103C57.125 12.9568 58.8064 12.13 60.9241 12.13C61.418 12.13 61.7936 12.1788 62.0511 12.2795V16.7336C61.2998 16.5353 60.6454 16.4346 60.091 16.4346C58.8822 16.4346 57.9036 16.8343 57.1523 17.6305C56.4009 18.4268 56.0252 19.583 56.0252 21.0993V28.8116H51.9292V28.8085Z" fill="#F1F1F1"/>
<path d="M73.488 29.1684C71.331 29.1684 69.7071 28.5216 68.6195 27.2251V28.8084H64.6719V6.14734H68.6801V13.8902C69.8858 12.6943 71.5491 12.0963 73.6668 12.0963C75.9632 12.0963 77.8143 12.8682 79.2201 14.4149C80.6258 15.9586 81.3287 18.027 81.3287 20.6171C81.3287 23.2072 80.6167 25.3061 79.1898 26.8498C77.7659 28.3935 75.8633 29.1654 73.488 29.1654V29.1684ZM72.5973 25.4617C73.9819 25.4617 75.0756 25.0346 75.8784 24.1774C76.6813 23.3201 77.0812 22.1333 77.0812 20.6202C77.0812 19.107 76.6813 17.9233 75.8784 17.0782C75.0756 16.2301 74.0122 15.8061 72.6852 15.8061C71.8733 15.8061 71.0916 15.9891 70.3403 16.3582C69.5889 16.7274 69.0133 17.2399 68.6195 17.8989V23.3109C69.4314 24.7448 70.7584 25.4648 72.5973 25.4648V25.4617Z" fill="#F1F1F1"/>
<path d="M92.4016 29.168C89.7083 29.168 87.5482 28.3962 85.9152 26.8525C84.2822 25.3088 83.4673 23.2312 83.4673 20.6198C83.4673 18.0083 84.2883 15.9918 85.9304 14.445C87.5724 12.9014 89.7295 12.1265 92.4016 12.1265C95.0737 12.1265 97.2217 12.8983 98.8456 14.445C100.469 15.9887 101.281 18.048 101.281 20.6198C101.281 23.1916 100.469 25.3088 98.8456 26.8525C97.2217 28.3962 95.0737 29.168 92.4016 29.168ZM92.4016 25.4003C93.7861 25.4003 94.9101 24.961 95.7705 24.0855C96.631 23.2099 97.0612 22.0537 97.0612 20.6167C97.0612 19.1798 96.631 18.0602 95.7705 17.1938C94.9101 16.3274 93.7861 15.8942 92.4016 15.8942C91.0171 15.8942 89.8628 16.3274 89.0024 17.1938C88.142 18.0602 87.7118 19.2012 87.7118 20.6167C87.7118 22.0323 88.142 23.2068 89.0024 24.0855C89.8628 24.9641 90.9959 25.4003 92.4016 25.4003Z" fill="#F1F1F1"/>
<path d="M104.333 28.808V12.4865H108.281V13.9813C109.783 12.7458 111.516 12.1265 113.476 12.1265C115.555 12.1265 117.103 12.6603 118.124 13.7251C119.142 14.7928 119.654 16.5714 119.654 19.0609V28.808H115.585V20.0768C115.585 18.5209 115.294 17.4256 114.709 16.788C114.125 16.1504 113.279 15.8301 112.171 15.8301C110.765 15.8301 109.517 16.3975 108.429 17.5355V28.808H104.333Z" fill="#F1F1F1"/>
<path d="M119.367 11.5888V0.052002H121.709V11.5888H119.367Z" fill="#F1F1F1"/>
<path d="M126.965 11.5888V2.21676H123.314V0.052002H132.945V2.21676H129.294V11.5931H126.965V11.5888Z" fill="#F1F1F1"/>
</g>
<defs>
<clipPath id="clip0_245_3190">
<rect width="133" height="30" fill="white"/>
</clipPath>
</defs>
</svg>
