<svg width="14" height="13" viewBox="0 0 14 13" fill="none" xmlns="http://www.w3.org/2000/svg">
<path d="M7.14186 0.276328C7.20173 0.0920661 7.46241 0.092066 7.52228 0.276328L8.93332 4.61906C8.96009 4.70146 9.03688 4.75725 9.12353 4.75725H13.6897C13.8835 4.75725 13.964 5.00518 13.8073 5.11906L10.1132 7.80301C10.0431 7.85394 10.0137 7.94421 10.0405 8.02662L11.4515 12.3693C11.5114 12.5536 11.3005 12.7068 11.1438 12.593L7.44963 9.909C7.37953 9.85807 7.28461 9.85807 7.21451 9.909L3.52037 12.5929C3.36362 12.7068 3.15273 12.5536 3.2126 12.3693L4.62364 8.02662C4.65041 7.94421 4.62108 7.85394 4.55098 7.80301L0.856837 5.11906C0.700094 5.00518 0.780649 4.75725 0.974394 4.75725H5.54061C5.62725 4.75725 5.70404 4.70146 5.73082 4.61906L7.14186 0.276328Z" fill="#707070"/>
</svg>
