<svg width="16" height="15" viewBox="0 0 16 15" fill="none" xmlns="http://www.w3.org/2000/svg">
<path id="Star 1" d="M7.51637 0.40265C7.64352 0.011297 8.19718 0.0112978 8.32434 0.402651L9.82773 5.0296C9.8846 5.20462 10.0477 5.32311 10.2317 5.32311H15.0968C15.5083 5.32311 15.6794 5.84968 15.3465 6.09155L11.4105 8.95116C11.2617 9.05933 11.1994 9.25106 11.2562 9.42608L12.7596 14.053C12.8868 14.4444 12.4389 14.7698 12.106 14.5279L8.17003 11.6683C8.02115 11.5602 7.81956 11.5602 7.67068 11.6683L3.73476 14.5279C3.40185 14.7698 2.95393 14.4444 3.08109 14.053L4.58448 9.42608C4.64134 9.25106 4.57905 9.05933 4.43017 8.95116L0.494249 6.09155C0.161344 5.84968 0.332434 5.32311 0.743927 5.32311H5.60899C5.79302 5.32311 5.95611 5.20462 6.01298 5.0296L7.51637 0.40265Z" fill="#707070"/>
</svg>
