<svg width="82" height="29" viewBox="0 0 82 29" fill="none" xmlns="http://www.w3.org/2000/svg">
<g opacity="0.5">
<path d="M20.7129 4.01562H16.25L13 8.86094L10.2143 4.01562H0L13 24.9992L26 4.01562H20.7129ZM3.23259 5.76563H6.35491L13 16.6047L19.6393 5.76563H22.7616L13 21.5266L3.23259 5.76563Z" fill="#FAFAFA"/>
<path d="M43.056 10.188H45.248L40.208 21.58H39.088L34.08 10.188H36.304L38.816 16.284L39.648 18.508L40.528 16.3L43.056 10.188ZM49.3029 21.676C47.0735 21.676 45.9589 20.4387 45.9589 17.964V12.796H47.8469V17.58C47.8469 19.1907 48.5029 19.996 49.8149 19.996C50.6895 19.996 51.4469 19.6173 52.0869 18.86V12.796H53.9749V21.5H52.1669V20.524C51.3989 21.292 50.4442 21.676 49.3029 21.676ZM64.5688 17.164C64.5688 17.42 64.5634 17.6013 64.5528 17.708H57.5288C57.6461 18.4547 57.9501 19.036 58.4408 19.452C58.9314 19.868 59.5661 20.076 60.3448 20.076C61.4861 20.076 62.3768 19.676 63.0168 18.876L64.2488 19.9C63.3741 21.084 62.0301 21.676 60.2168 21.676C58.7874 21.676 57.6568 21.2653 56.8248 20.444C56.0034 19.612 55.5928 18.5027 55.5928 17.116C55.5928 15.7507 56.0088 14.652 56.8408 13.82C57.6728 12.988 58.7554 12.572 60.0888 12.572C61.5394 12.572 62.6488 12.9933 63.4167 13.836C64.1848 14.668 64.5688 15.7773 64.5688 17.164ZM60.0888 14.156C59.4381 14.156 58.8834 14.3427 58.4248 14.716C57.9661 15.0787 57.6728 15.6013 57.5448 16.284H62.6648C62.6008 15.6547 62.3501 15.1427 61.9128 14.748C61.4861 14.3533 60.8781 14.156 60.0888 14.156ZM66.7169 21.708C66.3755 21.708 66.0822 21.5907 65.8369 21.356C65.5915 21.1213 65.4689 20.8333 65.4689 20.492C65.4689 20.1613 65.5915 19.8787 65.8369 19.644C66.0822 19.4093 66.3755 19.292 66.7169 19.292C67.0475 19.292 67.3302 19.4093 67.5649 19.644C67.7995 19.8787 67.9169 20.1613 67.9169 20.492C67.9169 20.8333 67.7995 21.1213 67.5649 21.356C67.3302 21.5907 67.0475 21.708 66.7169 21.708ZM71.9169 11.324C71.6822 11.5587 71.3942 11.676 71.0529 11.676C70.7115 11.676 70.4182 11.5587 70.1729 11.324C69.9382 11.0893 69.8209 10.8013 69.8209 10.46C69.8209 10.1293 69.9382 9.84667 70.1729 9.612C70.4182 9.37733 70.7115 9.26 71.0529 9.26C71.3942 9.26 71.6822 9.37733 71.9169 9.612C72.1515 9.84667 72.2689 10.1293 72.2689 10.46C72.2689 10.8013 72.1515 11.0893 71.9169 11.324ZM69.4049 24.524C68.8609 24.524 68.4609 24.4813 68.2049 24.396V22.844C68.4289 22.908 68.6475 22.94 68.8609 22.94C69.3729 22.94 69.6982 22.8013 69.8369 22.524C69.9862 22.2573 70.0609 21.788 70.0609 21.116V12.796H71.9649V22.092C71.9649 22.9347 71.7302 23.548 71.2609 23.932C70.8022 24.3267 70.1835 24.524 69.4049 24.524ZM77.3501 21.708C75.9955 21.708 74.7741 21.4413 73.6861 20.908L74.3101 19.388C75.2168 19.9213 76.2141 20.188 77.3021 20.188C78.4328 20.188 78.9981 19.82 78.9981 19.084C78.9981 18.7747 78.8488 18.54 78.5501 18.38C78.2515 18.22 77.7181 18.0547 76.9501 17.884C75.8728 17.66 75.0781 17.3507 74.5661 16.956C74.0648 16.5507 73.8141 15.9693 73.8141 15.212C73.8141 14.3693 74.1181 13.7293 74.7261 13.292C75.3448 12.844 76.1768 12.62 77.2221 12.62C78.2995 12.62 79.4141 12.8493 80.5661 13.308L79.9261 14.828C79.0728 14.3907 78.1608 14.172 77.1901 14.172C76.2088 14.172 75.7181 14.476 75.7181 15.084C75.7181 15.404 75.8568 15.644 76.1341 15.804C76.4115 15.964 76.9448 16.1347 77.7341 16.316C78.8435 16.572 79.6541 16.892 80.1661 17.276C80.6888 17.66 80.9501 18.2093 80.9501 18.924C80.9501 19.884 80.6515 20.588 80.0541 21.036C79.4568 21.484 78.5555 21.708 77.3501 21.708Z" fill="#FAFAFA"/>
</g>
</svg>
