<svg width="119" height="29" viewBox="0 0 119 29" fill="none" xmlns="http://www.w3.org/2000/svg">
<g opacity="0.5">
<g clip-path="url(#clip0_245_3685)">
<path d="M11.4992 28.2805C11.1552 28.2805 10.8061 28.182 10.5032 27.9961L7.3356 26C6.86328 25.7156 7.09431 25.6172 7.24833 25.5625C7.8798 25.3273 8.00815 25.2781 8.68069 24.868C8.75257 24.8242 8.84498 24.8406 8.91685 24.8898L11.3503 26.4266C11.4376 26.4812 11.5608 26.4812 11.643 26.4266L21.1253 20.5969C21.2126 20.5422 21.2691 20.4328 21.2691 20.3234V8.66406C21.2691 8.54922 21.2126 8.44531 21.1202 8.38516L11.643 2.56094C11.5557 2.50625 11.4376 2.50625 11.3503 2.56094L1.87824 8.39062C1.78583 8.44531 1.72935 8.55469 1.72935 8.66953V20.3234C1.72935 20.4328 1.78583 20.5422 1.87824 20.5914L4.476 22.1883C5.88784 22.9375 6.75034 22.057 6.75034 21.1656V9.65937C6.75034 9.49531 6.87355 9.36953 7.02757 9.36953H8.22891C8.37779 9.36953 8.50614 9.49531 8.50614 9.65937V21.1711C8.50614 23.1727 7.47935 24.3211 5.69788 24.3211C5.14855 24.3211 4.7173 24.3211 3.51596 23.6867L1.03114 22.1609C0.415067 21.7836 0.0351562 21.0781 0.0351562 20.318V8.66406C0.0351562 7.90937 0.415067 7.19844 1.03114 6.82109L10.5032 0.991406C11.1039 0.630469 11.8997 0.630469 12.4952 0.991406L21.9776 6.82656C22.5936 7.20391 22.9735 7.90937 22.9735 8.66953V20.3234C22.9735 21.0781 22.5936 21.7836 21.9776 22.1664L12.4952 27.9961C12.1923 28.182 11.8483 28.2805 11.4992 28.2805ZM19.1539 16.7906C19.1539 14.6086 17.7677 14.0289 14.8568 13.6187C11.9099 13.2031 11.6122 12.9898 11.6122 12.257C11.6122 11.65 11.8637 10.8406 14.0456 10.8406C15.9914 10.8406 16.7102 11.2891 17.0079 12.6891C17.0336 12.8203 17.1465 12.9187 17.2749 12.9187H18.507C18.584 12.9187 18.6559 12.8859 18.7073 12.8258C18.7586 12.7656 18.7843 12.6836 18.7791 12.6016C18.5892 10.1898 17.0849 9.06875 14.0456 9.06875C11.3401 9.06875 9.72801 10.2828 9.72801 12.3227C9.72801 14.532 11.3349 15.1445 13.9276 15.418C17.0336 15.7406 17.2749 16.2273 17.2749 16.8781C17.2749 18.0047 16.4227 18.4859 14.4256 18.4859C11.9151 18.4859 11.3657 17.8133 11.1809 16.4844C11.1604 16.3422 11.0474 16.2383 10.9088 16.2383H9.68181C9.52779 16.2383 9.40971 16.3695 9.40971 16.5281C9.40971 18.2289 10.2773 20.2578 14.4307 20.2578C17.4289 20.2523 19.1539 18.9891 19.1539 16.7906Z" fill="#FAFAFA"/>
</g>
<path d="M40.216 10.188H42.152V21.58H41.16L34.088 13.772V21.5H32.152V10.092H33.144L40.216 17.9V10.188ZM52.1609 20.444C51.2862 21.2653 50.1342 21.676 48.7049 21.676C47.2755 21.676 46.1182 21.26 45.2329 20.428C44.3582 19.596 43.9209 18.4973 43.9209 17.132C43.9209 15.7773 44.3582 14.684 45.2329 13.852C46.1182 13.02 47.2755 12.604 48.7049 12.604C50.1342 12.604 51.2862 13.02 52.1609 13.852C53.0355 14.684 53.4729 15.7773 53.4729 17.132C53.4729 18.508 53.0355 19.612 52.1609 20.444ZM46.6729 19.196C47.1955 19.7187 47.8729 19.98 48.7049 19.98C49.5369 19.98 50.2089 19.7187 50.7209 19.196C51.2435 18.6733 51.5049 17.9853 51.5049 17.132C51.5049 16.2893 51.2435 15.612 50.7209 15.1C50.2089 14.5773 49.5369 14.316 48.7049 14.316C47.8729 14.316 47.1955 14.5773 46.6729 15.1C46.1502 15.6227 45.8889 16.3 45.8889 17.132C45.8889 17.9853 46.1502 18.6733 46.6729 19.196ZM58.9738 21.676C57.6831 21.676 56.6484 21.2653 55.8698 20.444C55.1018 19.6227 54.7178 18.5187 54.7178 17.132C54.7178 15.7453 55.1018 14.6467 55.8698 13.836C56.6378 13.0147 57.6458 12.604 58.8938 12.604C60.0884 12.604 61.0218 12.9453 61.6938 13.628V9.388H63.5818V21.5H61.7258V20.588C61.1071 21.3133 60.1898 21.676 58.9738 21.676ZM59.3418 19.996C59.8324 19.996 60.2911 19.8893 60.7178 19.676C61.1444 19.4627 61.4804 19.1427 61.7258 18.716V15.532C61.4698 15.1373 61.1178 14.8333 60.6698 14.62C60.2218 14.396 59.7578 14.284 59.2778 14.284C58.4991 14.284 57.8698 14.5347 57.3898 15.036C56.9204 15.5373 56.6858 16.2307 56.6858 17.116C56.6858 18.012 56.9258 18.716 57.4058 19.228C57.8858 19.74 58.5311 19.996 59.3418 19.996ZM74.2406 17.164C74.2406 17.42 74.2353 17.6013 74.2246 17.708H67.2006C67.318 18.4547 67.622 19.036 68.1126 19.452C68.6033 19.868 69.238 20.076 70.0166 20.076C71.158 20.076 72.0486 19.676 72.6886 18.876L73.9206 19.9C73.046 21.084 71.702 21.676 69.8886 21.676C68.4593 21.676 67.3286 21.2653 66.4966 20.444C65.6753 19.612 65.2646 18.5027 65.2646 17.116C65.2646 15.7507 65.6806 14.652 66.5126 13.82C67.3446 12.988 68.4273 12.572 69.7606 12.572C71.2113 12.572 72.3206 12.9933 73.0886 13.836C73.8566 14.668 74.2406 15.7773 74.2406 17.164ZM69.7606 14.156C69.11 14.156 68.5553 14.3427 68.0966 14.716C67.638 15.0787 67.3446 15.6013 67.2166 16.284H72.3366C72.2726 15.6547 72.022 15.1427 71.5846 14.748C71.158 14.3533 70.55 14.156 69.7606 14.156ZM82.7791 21.708C81.4885 21.708 80.4538 21.34 79.6751 20.604C78.8965 19.868 78.4858 18.8173 78.4431 17.452H80.3791C80.4218 18.316 80.6618 18.9453 81.0991 19.34C81.5365 19.724 82.0965 19.916 82.7791 19.916C84.2831 19.916 85.0351 18.94 85.0351 16.988V10.188H87.0191V16.988C87.0191 18.6307 86.6671 19.8307 85.9631 20.588C85.2698 21.3347 84.2085 21.708 82.7791 21.708ZM92.88 21.676C91.5893 21.676 90.5547 21.2653 89.776 20.444C89.008 19.6227 88.624 18.5187 88.624 17.132C88.624 15.7453 89.008 14.6467 89.776 13.836C90.544 13.0147 91.552 12.604 92.8 12.604C93.9947 12.604 94.928 12.9453 95.6 13.628V12.796H97.488V21.5H95.632V20.588C95.0133 21.3133 94.096 21.676 92.88 21.676ZM93.248 19.996C93.7387 19.996 94.1973 19.8893 94.624 19.676C95.0507 19.4627 95.3867 19.1427 95.632 18.716V15.532C95.376 15.1373 95.024 14.8333 94.576 14.62C94.128 14.396 93.664 14.284 93.184 14.284C92.4053 14.284 91.776 14.5347 91.296 15.036C90.8267 15.5373 90.592 16.2307 90.592 17.116C90.592 18.012 90.832 18.716 91.312 19.228C91.792 19.74 92.4373 19.996 93.248 19.996ZM105.875 12.796H107.955L103.843 21.58H102.739L98.6269 12.796H100.787L102.435 16.668L103.299 18.86L104.195 16.7L105.875 12.796ZM112.505 21.676C111.214 21.676 110.18 21.2653 109.401 20.444C108.633 19.6227 108.249 18.5187 108.249 17.132C108.249 15.7453 108.633 14.6467 109.401 13.836C110.169 13.0147 111.177 12.604 112.425 12.604C113.62 12.604 114.553 12.9453 115.225 13.628V12.796H117.113V21.5H115.257V20.588C114.638 21.3133 113.721 21.676 112.505 21.676ZM112.873 19.996C113.364 19.996 113.822 19.8893 114.249 19.676C114.676 19.4627 115.012 19.1427 115.257 18.716V15.532C115.001 15.1373 114.649 14.8333 114.201 14.62C113.753 14.396 113.289 14.284 112.809 14.284C112.03 14.284 111.401 14.5347 110.921 15.036C110.452 15.5373 110.217 16.2307 110.217 17.116C110.217 18.012 110.457 18.716 110.937 19.228C111.417 19.74 112.062 19.996 112.873 19.996Z" fill="#FAFAFA"/>
</g>
<defs>
<clipPath id="clip0_245_3685">
<rect width="23" height="28" fill="white" transform="translate(0 0.5)"/>
</clipPath>
</defs>
</svg>
