<svg width="106" height="27" viewBox="0 0 106 27" fill="none" xmlns="http://www.w3.org/2000/svg">
<g opacity="0.5">
<path d="M4.94648 9.34485C5.23125 9.24993 5.51602 9.16028 5.80078 9.0759C5.75332 8.88079 5.71113 8.68567 5.66895 8.49055C5.02031 5.34758 5.44746 2.82161 6.88711 1.9884C8.27402 1.19211 10.5363 2.02004 12.825 4.0134C13.0518 4.20852 13.2732 4.41418 13.4842 4.61985C13.6266 4.48274 13.7742 4.34563 13.9219 4.21379C16.3213 2.08332 18.726 1.18684 20.1656 2.02532C21.5473 2.82688 21.9586 5.2052 21.3785 8.17942C21.3205 8.47473 21.2572 8.76477 21.1834 9.06008C21.5209 9.155 21.8531 9.26047 22.1643 9.37121C24.9803 10.3468 27 11.8866 27 13.4792C27 15.1245 24.8484 16.7751 21.9217 17.7771C21.6844 17.8562 21.4471 17.9353 21.2045 18.0038C21.2836 18.3202 21.3521 18.6314 21.4154 18.953C21.9691 21.8798 21.5367 24.2001 20.1551 24.9964C18.7312 25.8191 16.3371 24.9753 14.0063 22.9345C13.8217 22.771 13.6371 22.6023 13.4525 22.423C13.2205 22.6497 12.9779 22.8659 12.7354 23.0769C10.4783 25.0175 8.24766 25.8032 6.87129 25.007C5.44746 24.1843 4.9834 21.69 5.58457 18.6525C5.63203 18.4204 5.68476 18.1831 5.74277 17.9405C5.57402 17.8931 5.41055 17.8404 5.24707 17.7876C2.2043 16.7804 0 15.1509 0 13.4792C0 11.8814 2.07773 10.331 4.94648 9.34485ZM12.0814 4.8677C10.1197 3.15911 8.28984 2.48938 7.45664 2.96926C6.56543 3.48079 6.22266 5.54797 6.78164 8.26379C6.81856 8.44309 6.85547 8.61711 6.90293 8.79114C8.07363 8.52746 9.26016 8.33762 10.452 8.23215C11.1375 7.25129 11.8863 6.31262 12.6984 5.43196C12.4928 5.23684 12.2924 5.05227 12.0814 4.8677ZM18.1828 16.2161C17.9139 16.6749 17.6396 17.1337 17.3496 17.582C18.1723 17.4923 18.9896 17.3605 19.7965 17.1864C19.5645 16.4271 19.2744 15.6413 18.9369 14.8398C18.6943 15.3038 18.4465 15.7626 18.1828 16.2161ZM19.7807 9.87219C19.0213 9.70344 18.2145 9.56633 17.376 9.46086C17.6555 9.89856 17.9297 10.3468 18.1881 10.8003C18.4465 11.2486 18.6996 11.7073 18.9369 12.1714C19.2691 11.3857 19.5486 10.6157 19.7807 9.87219ZM18.3357 13.5056C17.9877 12.7779 17.608 12.0659 17.2072 11.3646C16.8064 10.6632 16.374 9.98293 15.9205 9.31321C15.1295 9.2552 14.3227 9.22356 13.5 9.22356C12.6773 9.22356 11.8652 9.2552 11.0795 9.31321C10.6313 9.97766 10.2041 10.6579 9.79805 11.354C9.39199 12.0501 9.0123 12.762 8.65371 13.4845C9.00703 14.2122 9.38672 14.9294 9.79277 15.6361C10.1936 16.3374 10.6207 17.0177 11.0689 17.6927C11.8547 17.7507 12.6721 17.7771 13.5 17.7771C14.3279 17.7771 15.1295 17.7507 15.9047 17.7032C16.3635 17.0335 16.7959 16.348 17.202 15.6466C17.608 14.9452 17.9824 14.2333 18.3357 13.5056ZM8.81191 16.2056C8.54297 15.7415 8.28984 15.2722 8.04199 14.7976C7.70449 15.5622 7.40918 16.3374 7.15078 17.1337C7.96816 17.3183 8.79609 17.4607 9.6293 17.5556C9.34453 17.1126 9.07559 16.6591 8.81191 16.2056ZM8.05254 12.1714C8.30039 11.7073 8.55352 11.2433 8.81719 10.7898C9.07559 10.3415 9.34453 9.89856 9.62402 9.46086C8.775 9.56633 7.96289 9.70871 7.20352 9.88274C7.44609 10.6632 7.73086 11.4226 8.05254 12.1714ZM13.4895 6.23879C12.9357 6.83997 12.4137 7.47278 11.9285 8.12668C12.9727 8.07922 14.0221 8.07922 15.0662 8.12668C14.5494 7.44641 14.0168 6.8136 13.4895 6.23879ZM19.6066 3.00618C18.7207 2.48938 16.7537 3.22766 14.6812 5.06282C14.5494 5.17883 14.4176 5.30539 14.2805 5.43196C15.0979 6.31262 15.852 7.25129 16.5428 8.23215C17.7346 8.33762 18.9158 8.52219 20.0865 8.78059C20.1551 8.51164 20.2131 8.23743 20.2711 7.96321C20.7668 5.41086 20.4398 3.48606 19.6066 3.00618ZM20.8986 16.907C21.1201 16.8437 21.3363 16.7751 21.5525 16.7013C22.6758 16.348 23.952 15.789 24.8748 15.056C25.4074 14.6868 25.766 14.1173 25.8662 13.4792C25.8662 12.5142 24.1998 11.2802 21.7951 10.4417C21.4945 10.3363 21.1887 10.2413 20.8828 10.1517C20.5242 11.296 20.0918 12.4193 19.5908 13.5056C20.0971 14.6077 20.5348 15.7468 20.8986 16.907ZM14.7498 22.0749C15.6199 22.8712 16.6271 23.504 17.724 23.9364C18.3094 24.2159 18.9844 24.2423 19.5855 24.005C20.424 23.5198 20.7721 21.6583 20.2975 19.1534C20.2395 18.8581 20.1762 18.5628 20.1023 18.2728C18.9211 18.5259 17.7293 18.6999 16.5217 18.7896C15.8256 19.7757 15.0609 20.7197 14.2436 21.6056C14.4123 21.7691 14.5811 21.9273 14.7498 22.0749ZM13.4578 20.7935C13.9957 20.2134 14.5336 19.57 15.0557 18.8792C14.5494 18.9003 14.0273 18.9109 13.5 18.9109C12.9568 18.9109 12.4242 18.9003 11.8969 18.8739C12.382 19.5437 12.9041 20.1818 13.4578 20.7935ZM6.56543 22.3755C6.61289 23.0189 6.9293 23.62 7.43555 24.0261C8.27402 24.5113 10.0617 23.8784 11.9918 22.2226C12.2133 22.0327 12.4348 21.8271 12.6615 21.6161C11.8547 20.7249 11.1111 19.781 10.4361 18.7896C9.22852 18.6894 8.02617 18.5048 6.83965 18.2359C6.78691 18.4521 6.73945 18.6683 6.69727 18.8792C6.43887 20.0183 6.39668 21.2048 6.56543 22.3755ZM5.60566 16.7066C5.75332 16.754 5.90098 16.8015 6.05391 16.8437C6.42305 15.6941 6.87656 14.5708 7.39863 13.4792C6.89238 12.4034 6.46523 11.296 6.10664 10.1622C5.83242 10.2413 5.56875 10.3257 5.31562 10.4101C2.8582 11.2538 1.13379 12.5089 1.13379 13.4687C1.13379 14.5023 2.97422 15.8364 5.60566 16.7066ZM13.5 15.9155C12.1658 15.9155 11.0848 14.8345 11.0848 13.5003C11.0848 12.1661 12.1658 11.0851 13.5 11.0851C14.8342 11.0851 15.9152 12.1661 15.9152 13.5003C15.9152 14.8345 14.8342 15.9155 13.5 15.9155Z" fill="#FAFAFA"/>
<path d="M45.544 20.5H43.16L40.776 17.108C40.7333 17.108 40.664 17.1133 40.568 17.124C40.4827 17.124 40.4133 17.124 40.36 17.124H38.104V20.5H36.152V9.188H40.712C42.152 9.188 43.2507 9.52933 44.008 10.212C44.7653 10.884 45.144 11.86 45.144 13.14C45.144 14.9533 44.3707 16.148 42.824 16.724L45.544 20.5ZM40.28 15.444C41.208 15.444 41.9067 15.2467 42.376 14.852C42.856 14.4573 43.096 13.908 43.096 13.204C43.096 11.668 42.2373 10.9 40.52 10.9H38.104V15.444H40.28ZM55.4594 16.164C55.4594 16.42 55.454 16.6013 55.4434 16.708H48.4194C48.5367 17.4547 48.8407 18.036 49.3314 18.452C49.822 18.868 50.4567 19.076 51.2354 19.076C52.3767 19.076 53.2674 18.676 53.9074 17.876L55.1394 18.9C54.2647 20.084 52.9207 20.676 51.1074 20.676C49.678 20.676 48.5474 20.2653 47.7154 19.444C46.894 18.612 46.4834 17.5027 46.4834 16.116C46.4834 14.7507 46.8994 13.652 47.7314 12.82C48.5634 11.988 49.646 11.572 50.9794 11.572C52.43 11.572 53.5394 11.9933 54.3074 12.836C55.0754 13.668 55.4594 14.7773 55.4594 16.164ZM50.9794 13.156C50.3287 13.156 49.774 13.3427 49.3154 13.716C48.8567 14.0787 48.5634 14.6013 48.4354 15.284H53.5554C53.4914 14.6547 53.2407 14.1427 52.8034 13.748C52.3767 13.3533 51.7687 13.156 50.9794 13.156ZM60.7706 20.676C59.48 20.676 58.4453 20.2653 57.6666 19.444C56.8986 18.6227 56.5146 17.5187 56.5146 16.132C56.5146 14.7453 56.8986 13.6467 57.6666 12.836C58.4346 12.0147 59.4426 11.604 60.6906 11.604C61.8853 11.604 62.8186 11.9453 63.4906 12.628V11.796H65.3786V20.5H63.5226V19.588C62.904 20.3133 61.9866 20.676 60.7706 20.676ZM61.1386 18.996C61.6293 18.996 62.088 18.8893 62.5146 18.676C62.9413 18.4627 63.2773 18.1427 63.5226 17.716V14.532C63.2666 14.1373 62.9146 13.8333 62.4666 13.62C62.0186 13.396 61.5546 13.284 61.0746 13.284C60.296 13.284 59.6666 13.5347 59.1866 14.036C58.7173 14.5373 58.4826 15.2307 58.4826 16.116C58.4826 17.012 58.7226 17.716 59.2026 18.228C59.6826 18.74 60.328 18.996 61.1386 18.996ZM71.7175 20.66C70.2668 20.66 69.1255 20.2547 68.2935 19.444C67.4722 18.6227 67.0615 17.5187 67.0615 16.132C67.0615 14.7773 67.4828 13.6893 68.3255 12.868C69.1788 12.036 70.3202 11.62 71.7495 11.62C72.5388 11.62 73.2535 11.7693 73.8935 12.068C74.5442 12.3667 75.0668 12.7773 75.4615 13.3L74.1495 14.484C73.9042 14.1427 73.5735 13.8653 73.1575 13.652C72.7415 13.4387 72.2935 13.332 71.8135 13.332C70.9602 13.332 70.2775 13.588 69.7655 14.1C69.2642 14.6013 69.0135 15.2733 69.0135 16.116C69.0135 16.9907 69.2642 17.684 69.7655 18.196C70.2668 18.708 70.9388 18.964 71.7815 18.964C72.8162 18.964 73.6268 18.5747 74.2135 17.796L75.5255 18.98C75.1202 19.5027 74.5868 19.9133 73.9255 20.212C73.2748 20.5107 72.5388 20.66 71.7175 20.66ZM80.1436 20.692C79.1943 20.692 78.5116 20.4573 78.0956 19.988C77.6796 19.5187 77.4716 18.7827 77.4716 17.78V13.46H76.1756V11.796H77.4716V8.388H79.3436V11.796H82.0956V13.46H79.3436V17.508C79.3436 18.0733 79.429 18.4787 79.5996 18.724C79.781 18.9587 80.117 19.076 80.6076 19.076C81.1303 19.076 81.621 18.9853 82.0796 18.804V20.452C81.5996 20.612 80.9543 20.692 80.1436 20.692ZM90.5291 20.708C89.2385 20.708 88.2038 20.34 87.4251 19.604C86.6465 18.868 86.2358 17.8173 86.1931 16.452H88.1291C88.1718 17.316 88.4118 17.9453 88.8491 18.34C89.2865 18.724 89.8465 18.916 90.5291 18.916C92.0331 18.916 92.7851 17.94 92.7851 15.988V9.188H94.7691V15.988C94.7691 17.6307 94.4171 18.8307 93.7131 19.588C93.0198 20.3347 91.9585 20.708 90.5291 20.708ZM101.11 20.708C100.15 20.708 99.318 20.6333 98.614 20.484C97.9207 20.324 97.158 20.0573 96.326 19.684L97.062 17.988C98.47 18.66 99.7873 18.996 101.014 18.996C101.718 18.996 102.262 18.8573 102.646 18.58C103.041 18.3027 103.238 17.908 103.238 17.396C103.238 16.916 103.035 16.564 102.63 16.34C102.225 16.116 101.547 15.9027 100.598 15.7C99.2113 15.4227 98.1767 15.0387 97.494 14.548C96.8113 14.0573 96.47 13.3053 96.47 12.292C96.47 11.2893 96.8273 10.4893 97.542 9.892C98.2567 9.284 99.286 8.98 100.63 8.98C102.23 8.98 103.633 9.27333 104.838 9.86L104.022 11.476C102.923 10.9747 101.793 10.724 100.63 10.724C99.9473 10.724 99.4193 10.868 99.046 11.156C98.6833 11.444 98.502 11.796 98.502 12.212C98.502 12.6813 98.7207 13.0333 99.158 13.268C99.606 13.492 100.347 13.716 101.382 13.94C102.011 14.0787 102.534 14.2227 102.95 14.372C103.377 14.5107 103.777 14.708 104.15 14.964C104.534 15.2093 104.817 15.524 104.998 15.908C105.19 16.2813 105.286 16.7347 105.286 17.268C105.286 18.4093 104.929 19.268 104.214 19.844C103.499 20.42 102.465 20.708 101.11 20.708Z" fill="#FAFAFA"/>
</g>
</svg>
