<svg width="55" height="44" viewBox="0 0 55 44" fill="none" xmlns="http://www.w3.org/2000/svg">
<path d="M0.97 28.166C0.97 9.61133 9.11133 0.333993 25.394 0.333993V8.712C21.2287 8.712 18.294 9.75333 16.59 11.836C14.9807 13.9187 14.176 17.0427 14.176 21.208C17.1107 21.5867 19.43 22.8173 21.134 24.9C22.9327 26.9827 23.832 29.4913 23.832 32.426C23.832 35.9287 22.838 38.7213 20.85 40.804C18.862 42.8867 16.164 43.928 12.756 43.928C9.064 43.928 6.17667 42.6027 4.094 39.952C2.01133 37.2067 0.97 33.278 0.97 28.166ZM54.504 8.712C50.3387 8.712 47.404 9.75333 45.7 11.836C44.0907 13.9187 43.286 17.0427 43.286 21.208C46.2207 21.5867 48.54 22.8173 50.244 24.9C52.0427 26.9827 52.942 29.4913 52.942 32.426C52.942 35.9287 51.948 38.7213 49.96 40.804C48.0667 42.8867 45.416 43.928 42.008 43.928C38.316 43.928 35.4287 42.6027 33.346 39.952C31.2633 37.2067 30.222 33.278 30.222 28.166C30.222 9.61133 38.316 0.333993 54.504 0.333993V8.712Z" fill="#1B8FFA"/>
</svg>
